<?xml version="1.0" encoding="utf-8"?>
<!-- Generator: Adobe Illustrator 19.2.0, SVG Export Plug-In . SVG Version: 6.00 Build 0)  -->
<svg version="1.1" id="Layer_1" xmlns="http://www.w3.org/2000/svg" xmlns:xlink="http://www.w3.org/1999/xlink" x="0px" y="0px"
	 viewBox="0 0 486 477" style="enable-background:new 0 0 486 477;" xml:space="preserve">
<style type="text/css">
	.st0{clip-path:url(#SVGID_2_);}
	.st1{clip-path:url(#SVGID_4_);}
	.st2{clip-path:url(#SVGID_6_);fill:#000200;}
	.st3{clip-path:url(#SVGID_8_);fill:#000200;}
	.st4{clip-path:url(#SVGID_10_);}
	.st5{clip-path:url(#SVGID_12_);fill:#000200;}
	.st6{clip-path:url(#SVGID_14_);}
	.st7{clip-path:url(#SVGID_16_);fill:#020001;}
	.st8{clip-path:url(#SVGID_18_);fill:#000200;}
	.st9{clip-path:url(#SVGID_20_);}
	.st10{clip-path:url(#SVGID_4_);fill:#000200;}
	.st11{clip-path:url(#SVGID_22_);fill:#020001;}
	.st12{clip-path:url(#SVGID_24_);}
	.st13{clip-path:url(#SVGID_26_);}
	.st14{clip-path:url(#SVGID_28_);fill:#020001;}
	.st15{clip-path:url(#SVGID_30_);fill:#020001;}
	.st16{clip-path:url(#SVGID_32_);fill:#000200;}
	.st17{clip-path:url(#SVGID_34_);}
	.st18{clip-path:url(#SVGID_36_);fill:#020001;}
	.st19{clip-path:url(#SVGID_38_);fill:#000200;}
	.st20{clip-path:url(#SVGID_40_);fill:#020001;}
	.st21{clip-path:url(#SVGID_42_);}
	.st22{clip-path:url(#SVGID_44_);fill:#000200;}
	.st23{clip-path:url(#SVGID_46_);fill:#000200;}
	.st24{clip-path:url(#SVGID_48_);fill:#000200;}
	.st25{clip-path:url(#SVGID_48_);}
	.st26{clip-path:url(#SVGID_50_);fill:#020001;}
	.st27{display:none;clip-path:url(#SVGID_4_);fill:#020001;}
	.st28{display:none;clip-path:url(#SVGID_4_);fill:#000200;}
	.st29{display:none;}
	.st30{display:inline;}
	.st31{clip-path:url(#SVGID_52_);}
	.st32{clip-path:url(#SVGID_54_);}
	.st33{clip-path:url(#SVGID_56_);}
	.st34{clip-path:url(#SVGID_58_);}
	.st35{clip-path:url(#SVGID_60_);fill:#7DCE72;}
	.st36{clip-path:url(#SVGID_62_);}
	.st37{clip-path:url(#SVGID_64_);fill:#7DCE72;}
	.st38{clip-path:url(#SVGID_66_);}
	.st39{clip-path:url(#SVGID_68_);fill:#0097A7;}
	.st40{clip-path:url(#SVGID_70_);}
	.st41{clip-path:url(#SVGID_72_);fill:#7DCE72;}
	.st42{clip-path:url(#SVGID_74_);}
	.st43{clip-path:url(#SVGID_76_);fill:#0097A7;}
	.st44{clip-path:url(#SVGID_78_);}
	.st45{clip-path:url(#SVGID_80_);fill:#E91E63;}
	.st46{clip-path:url(#SVGID_82_);}
	.st47{clip-path:url(#SVGID_84_);fill:#7DCE72;}
	.st48{clip-path:url(#SVGID_86_);}
	.st49{clip-path:url(#SVGID_88_);fill:#0097A7;}
	.st50{clip-path:url(#SVGID_56_);fill:#7DCE72;}
	.st51{clip-path:url(#SVGID_90_);}
	.st52{clip-path:url(#SVGID_92_);fill:#E91E63;}
	.st53{clip-path:url(#SVGID_94_);}
	.st54{clip-path:url(#SVGID_96_);fill:#0097A7;}
	.st55{clip-path:url(#SVGID_98_);}
	.st56{clip-path:url(#SVGID_100_);fill:#0097A7;}
	.st57{clip-path:url(#SVGID_102_);}
	.st58{clip-path:url(#SVGID_104_);fill:#E91E63;}
	.st59{clip-path:url(#SVGID_106_);}
	.st60{clip-path:url(#SVGID_108_);fill:#E91E63;}
	.st61{clip-path:url(#SVGID_110_);}
	.st62{clip-path:url(#SVGID_112_);fill:#7DCE72;}
	.st63{clip-path:url(#SVGID_114_);}
	.st64{clip-path:url(#SVGID_116_);fill:#0097A7;}
	.st65{clip-path:url(#SVGID_118_);}
	.st66{clip-path:url(#SVGID_120_);fill:#E91E63;}
	.st67{clip-path:url(#SVGID_122_);}
	.st68{clip-path:url(#SVGID_124_);fill:#7DCE72;}
	.st69{clip-path:url(#SVGID_126_);}
	.st70{clip-path:url(#SVGID_128_);fill:#E91E63;}
	.st71{clip-path:url(#SVGID_130_);}
	.st72{clip-path:url(#SVGID_132_);fill:#0097A7;}
	.st73{clip-path:url(#SVGID_134_);}
	.st74{clip-path:url(#SVGID_136_);fill:#7DCE72;}
	.st75{clip-path:url(#SVGID_138_);}
	.st76{clip-path:url(#SVGID_140_);fill:#7DCE72;}
	.st77{clip-path:url(#SVGID_142_);}
	.st78{clip-path:url(#SVGID_144_);fill:#7DCE72;}
	.st79{clip-path:url(#SVGID_144_);}
	.st80{clip-path:url(#SVGID_146_);}
	.st81{clip-path:url(#SVGID_148_);fill:#E91E63;}
	.st82{clip-path:url(#SVGID_56_);fill:#E91E63;}
</style>
<g>
	<defs>
		<rect id="SVGID_1_" width="486" height="477"/>
	</defs>
	<clipPath id="SVGID_2_">
		<use xlink:href="#SVGID_1_"  style="overflow:visible;"/>
	</clipPath>
	<g class="st0">
		<defs>
			<rect id="SVGID_3_" width="486" height="477"/>
		</defs>
		<clipPath id="SVGID_4_">
			<use xlink:href="#SVGID_3_"  style="overflow:visible;"/>
		</clipPath>
		<g class="st1">
			<g>
				<defs>
					<rect id="SVGID_5_" x="317" y="229.1" width="79.1" height="42.7"/>
				</defs>
				<clipPath id="SVGID_6_">
					<use xlink:href="#SVGID_5_"  style="overflow:visible;"/>
				</clipPath>
				<path class="st2" d="M348,271.8c-4,0-8-0.5-12-1.5c-6.1-1.5-11.8-4.1-16.9-7.7c-2.3-1.6-2.9-4.8-1.2-7.1
					c1.6-2.3,4.8-2.9,7.1-1.2c4,2.9,8.6,4.9,13.4,6.1c20.8,5.1,41.7-7,47.6-27.6c0.8-2.7,3.6-4.3,6.3-3.5c2.7,0.8,4.3,3.6,3.5,6.3
					c-3.6,12.4-11.7,22.9-22.9,29.4C365.3,269.5,356.7,271.8,348,271.8"/>
			</g>
		</g>
		<g class="st1">
			<g>
				<defs>
					<rect id="SVGID_7_" x="359" y="140.6" width="44.8" height="48.2"/>
				</defs>
				<clipPath id="SVGID_8_">
					<use xlink:href="#SVGID_7_"  style="overflow:visible;"/>
				</clipPath>
				<path class="st3" d="M395.8,188.8c-0.8,0-1.6-0.2-2.3-0.6c-2.5-1.3-3.5-4.4-2.2-6.9c0.7-1.5,1.3-3,1.7-4.6
					c2.8-11.2-4.1-22.6-15.4-25.3c-3.9-1-8-0.8-11.8,0.5c-2.7,0.9-5.6-0.5-6.5-3.1c-0.9-2.7,0.5-5.6,3.1-6.5
					c5.7-2,11.8-2.3,17.6-0.8c16.7,4.1,26.9,21,22.8,37.7c-0.6,2.4-1.4,4.7-2.6,6.8C399.4,187.8,397.6,188.8,395.8,188.8"/>
			</g>
		</g>
		<g class="st1">
			<g>
				<defs>
					<rect id="SVGID_9_" x="301.7" y="98.4" width="68.1" height="53.8"/>
				</defs>
				<clipPath id="SVGID_10_">
					<use xlink:href="#SVGID_9_"  style="overflow:visible;"/>
				</clipPath>
				<path class="st4" d="M364.1,152.2c-0.4,0-0.8,0-1.2-0.1c-2.7-0.6-4.4-3.4-3.8-6.1c1.8-7.8-3.1-18.9-12.1-27
					c-11.4-10.4-26.3-13.5-32.4-6.7c-4.4,4.8-3.5,14,2.3,22.9c1.5,2.4,0.8,5.5-1.5,7c-2.4,1.5-5.5,0.8-7-1.5
					c-8.4-13.1-8.9-26.9-1.2-35.3c10.2-11.2,30.8-8.6,46.9,6c11.9,10.9,17.9,25.3,15.1,36.9C368.5,150.7,366.4,152.2,364.1,152.2"/>
			</g>
		</g>
		<g class="st1">
			<g>
				<defs>
					<rect id="SVGID_11_" x="224.9" y="272.7" width="58.9" height="26.9"/>
				</defs>
				<clipPath id="SVGID_12_">
					<use xlink:href="#SVGID_11_"  style="overflow:visible;"/>
				</clipPath>
				<path class="st5" d="M252.6,299.5c-2.7,0-5.4-0.3-8-1c-7.5-1.8-13.9-6-18.6-12.1c-1.7-2.2-1.3-5.4,0.9-7.2
					c2.2-1.7,5.4-1.3,7.2,0.9c3.3,4.2,7.8,7.1,13,8.4c11,2.7,22.3-2.8,27-13c1.2-2.6,4.2-3.7,6.8-2.5c2.6,1.2,3.7,4.2,2.5,6.8
					C277.7,292.1,265.6,299.5,252.6,299.5"/>
			</g>
		</g>
		<g class="st1">
			<g>
				<defs>
					<rect id="SVGID_13_" x="361.6" y="174.7" width="50.9" height="64.6"/>
				</defs>
				<clipPath id="SVGID_14_">
					<use xlink:href="#SVGID_13_"  style="overflow:visible;"/>
				</clipPath>
				<path class="st6" d="M391.1,239.4c-2.5,0-4.7-1.8-5-4.3c-0.4-2.8,1.5-5.4,4.3-5.8c3.7-0.6,7-3.2,9.2-7.4
					c2.5-4.7,3.4-10.8,2.4-16.9c-0.9-6.2-3.5-11.7-7.3-15.4c-3.4-3.4-7.3-4.9-11-4.4c-6.1,0.9-10.8,7.5-11.8,16.3
					c-0.3,2.8-2.8,4.8-5.6,4.5c-2.8-0.3-4.8-2.8-4.5-5.6c1.5-13.4,9.7-23.6,20.4-25.2c7-1.1,14,1.5,19.8,7.2
					c5.3,5.3,9,12.8,10.2,21.1c1.3,8.3,0,16.6-3.5,23.2c-3.8,7.2-9.7,11.7-16.7,12.8C391.6,239.3,391.3,239.4,391.1,239.4"/>
			</g>
		</g>
		<g class="st1">
			<g>
				<defs>
					<rect id="SVGID_15_" x="239.2" y="75.7" width="73.8" height="43.2"/>
				</defs>
				<clipPath id="SVGID_16_">
					<use xlink:href="#SVGID_15_"  style="overflow:visible;"/>
				</clipPath>
				<path class="st7" d="M307.9,118.8c-2.5,0-4.7-1.8-5-4.4c-1.9-13.5-11.8-24.4-25.1-27.6c-10.7-2.6-21.9,0.2-30.1,7.5
					c-2.1,1.9-5.3,1.7-7.2-0.4c-1.9-2.1-1.7-5.3,0.4-7.2c10.7-9.5,25.4-13.2,39.3-9.8c17.3,4.3,30.2,18.4,32.7,36.1
					c0.4,2.8-1.5,5.4-4.3,5.8C308.4,118.8,308.1,118.8,307.9,118.8"/>
			</g>
		</g>
		<g class="st1">
			<g>
				<defs>
					<rect id="SVGID_17_" x="117.4" y="102.7" width="38.8" height="43.5"/>
				</defs>
				<clipPath id="SVGID_18_">
					<use xlink:href="#SVGID_17_"  style="overflow:visible;"/>
				</clipPath>
				<path class="st8" d="M139.1,146.2c-1.7,0-3.4-0.2-5.2-0.6c-5.6-1.4-10.4-4.9-13.4-9.9c-3-5-3.9-10.8-2.5-16.5
					c2.9-11.7,14.7-18.8,26.3-16c1,0.2,1.8,0.5,2.7,0.8c2.6,1,3.9,4,2.9,6.6c-1,2.6-4,3.9-6.6,2.9c-0.4-0.2-0.9-0.3-1.4-0.4
					c-6.2-1.5-12.5,2.3-14,8.5c-0.7,3-0.3,6.1,1.3,8.8c1.6,2.6,4.1,4.5,7.1,5.2c4,1,8.2-0.2,11.1-3.2c2-2,5.2-2.1,7.2-0.1
					c2,2,2.1,5.2,0.1,7.2C150.6,143.9,144.9,146.2,139.1,146.2"/>
			</g>
		</g>
		<g class="st1">
			<g>
				<defs>
					<rect id="SVGID_19_" x="150.9" y="251.9" width="91.4" height="47.9"/>
				</defs>
				<clipPath id="SVGID_20_">
					<use xlink:href="#SVGID_19_"  style="overflow:visible;"/>
				</clipPath>
				<path class="st9" d="M200.1,299.8c-3.9,0-7.9-0.5-11.8-1.4c-19.5-4.8-34.2-20.7-37.4-40.6c-0.4-2.8,1.4-5.4,4.2-5.8
					c2.8-0.4,5.4,1.4,5.8,4.2c2.5,15.8,14.2,28.5,29.8,32.3c16,3.9,32.9-2.6,42.2-16.1c1.6-2.3,4.8-2.9,7.1-1.3
					c2.3,1.6,2.9,4.8,1.3,7.1C232,291.9,216.3,299.8,200.1,299.8"/>
			</g>
		</g>
		<path class="st10" d="M156,262.1c-2.5,0-4.6-1.8-5-4.3c-1.1-6.6-0.8-13.3,0.8-19.8c9.4-38.4,45.4-39.1,74.4-39.6
			c25.5-0.5,41.3-1.5,44.9-15.8c0.7-2.7,3.5-4.4,6.2-3.7c2.7,0.7,4.4,3.5,3.7,6.2c-5.7,22.6-30.5,23-54.6,23.5
			c-28.1,0.6-57.1,1.1-64.7,31.9c-1.3,5.2-1.5,10.5-0.7,15.8c0.4,2.8-1.4,5.4-4.2,5.8C156.5,262.1,156.2,262.1,156,262.1"/>
		<g class="st1">
			<g>
				<defs>
					<rect id="SVGID_21_" x="239.6" y="158.1" width="42" height="30.8"/>
				</defs>
				<clipPath id="SVGID_22_">
					<use xlink:href="#SVGID_21_"  style="overflow:visible;"/>
				</clipPath>
				<path class="st11" d="M276,188.9c-0.4,0-0.8,0-1.2-0.2c-2.7-0.7-4.4-3.5-3.7-6.2c0.7-3,0.3-6.1-1.3-8.7
					c-1.6-2.7-4.2-4.5-7.2-5.3c-5.3-1.3-10.9,1.3-13.2,6.3c-1.2,2.5-4.2,3.6-6.8,2.4c-2.5-1.2-3.6-4.2-2.4-6.8
					c4.4-9.3,14.9-14.3,24.9-11.8c5.7,1.4,10.5,4.9,13.5,9.9c3,5,3.9,10.8,2.5,16.4C280.3,187.4,278.3,188.9,276,188.9"/>
			</g>
		</g>
		<g class="st1">
			<g>
				<defs>
					<rect id="SVGID_23_" x="109.4" y="135" width="30.8" height="31.3"/>
				</defs>
				<clipPath id="SVGID_24_">
					<use xlink:href="#SVGID_23_"  style="overflow:visible;"/>
				</clipPath>
				<path class="st12" d="M115.1,166.3c-2.2,0-4.3-1.5-4.9-3.7c-1-3.6-1-7.3-0.1-10.9c2.9-11.7,14.7-18.8,26.3-16
					c2.7,0.7,4.4,3.4,3.7,6.2c-0.7,2.7-3.4,4.4-6.2,3.7c-6.2-1.5-12.5,2.3-14,8.5c-0.5,1.9-0.4,3.9,0.1,5.8c0.7,2.7-0.8,5.5-3.6,6.3
					C116,166.3,115.6,166.3,115.1,166.3"/>
			</g>
		</g>
		<g class="st1">
			<g>
				<defs>
					<rect id="SVGID_25_" x="274.3" y="232.9" width="52.8" height="52.9"/>
				</defs>
				<clipPath id="SVGID_26_">
					<use xlink:href="#SVGID_25_"  style="overflow:visible;"/>
				</clipPath>
				<path class="st13" d="M294.4,285.8c-5.4,0-11-1-16.7-2.9c-2.7-0.9-4.1-3.8-3.2-6.5c0.9-2.7,3.8-4.1,6.5-3.2
					c9.6,3.3,19.4,3.1,26.2-0.6c4.8-2.6,7.9-6.8,9.3-12.4c1.8-7.4-2.7-14.9-10.1-16.7c-3.4-0.8-8.5-0.3-12.2,2.7
					c-2.2,1.8-5.4,1.4-7.2-0.8c-1.8-2.2-1.4-5.4,0.8-7.2c6.9-5.5,15.6-5.9,21-4.6c12.9,3.2,20.8,16.2,17.6,29.1
					c-2.1,8.4-7,15-14.3,18.9C307,284.4,300.9,285.8,294.4,285.8"/>
			</g>
		</g>
		<g class="st1">
			<g>
				<defs>
					<rect id="SVGID_27_" x="188.5" y="238.9" width="96" height="44.2"/>
				</defs>
				<clipPath id="SVGID_28_">
					<use xlink:href="#SVGID_27_"  style="overflow:visible;"/>
				</clipPath>
				<path class="st14" d="M279.4,283.1c-0.6,0-1.1-0.1-1.7-0.3c-12.4-4.3-21.4-11.9-29.4-18.7c-7.8-6.6-14.6-12.3-23.2-14.4
					c-5.8-1.4-11.7-0.5-16.7,2.5c-5,3-8.5,7.9-9.9,13.6c-0.7,2.7-3.4,4.4-6.2,3.7c-2.7-0.7-4.4-3.4-3.7-6.2
					c2.1-8.4,7.2-15.4,14.5-19.9c7.3-4.5,16-5.8,24.5-3.7c10.9,2.7,19.2,9.7,27.3,16.5c7.7,6.5,15.6,13.2,26.2,16.8
					c2.7,0.9,4.1,3.8,3.2,6.5C283.5,281.8,281.6,283.1,279.4,283.1"/>
			</g>
		</g>
		<g class="st1">
			<g>
				<defs>
					<rect id="SVGID_29_" x="140.1" y="83" width="74.7" height="101.5"/>
				</defs>
				<clipPath id="SVGID_30_">
					<use xlink:href="#SVGID_29_"  style="overflow:visible;"/>
				</clipPath>
				<path class="st15" d="M169.6,184.6c-1.6,0-3.2-0.2-4.7-0.6c-5.1-1.3-9.5-4.3-12.2-8.7c-2.8-4.4-3.6-9.8-2.3-15.2
					c2.6-10.5,14.6-17.3,27.4-24.5c18.3-10.3,30-17.9,25.8-30c-1.3-3.9-3.4-6.7-6.4-8.5c-6.4-4-15.8-5-25.1-2.7
					c-10.5,2.6-19.2,9-22.2,16.4c-1.1,2.6-4,3.9-6.6,2.8c-2.6-1.1-3.9-4-2.8-6.6c4.2-10.5,15.4-19.1,29.2-22.5c12-2.9,24.3-1.4,33,4
					c5,3.1,8.6,7.8,10.6,13.8c7.3,21.1-13.6,32.8-30.4,42.2c-10.3,5.8-21,11.8-22.5,18c-0.7,2.7-0.3,5.2,1,7.3
					c1.3,2.1,3.4,3.5,5.9,4.2c2.5,0.6,5,0.2,7.2-1.1c2.2-1.3,3.7-3.4,4.3-5.9c0.7-2.7,3.4-4.4,6.2-3.7c2.7,0.7,4.4,3.4,3.7,6.2
					c-1.3,5.1-4.4,9.4-8.9,12.1C176.6,183.6,173.1,184.6,169.6,184.6"/>
			</g>
		</g>
		<g class="st1">
			<g>
				<defs>
					<rect id="SVGID_31_" x="195" y="76.1" width="62" height="56.4"/>
				</defs>
				<clipPath id="SVGID_32_">
					<use xlink:href="#SVGID_31_"  style="overflow:visible;"/>
				</clipPath>
				<path class="st16" d="M240.2,132.5c-4.3,0-8.5-1.9-10.6-4.9c-1.6-2.3-1.1-5.5,1.2-7.1c2.3-1.6,5.4-1.1,7,1.2
					c0.4,0.3,1.8,1,3.2,0.6c2.1-0.5,3.8-3,4.9-6.9c1.6-5.8,0.8-11.9-2.3-17.2c-3.3-5.6-8.7-9.6-15-11.2c-9.2-2.3-18.9,1.2-24.5,8.8
					c-1.7,2.3-4.9,2.7-7.1,1c-2.3-1.7-2.7-4.9-1.1-7.1c8.1-10.9,21.9-15.9,35.1-12.6c8.9,2.2,16.7,8,21.4,15.9
					c4.5,7.7,5.7,16.6,3.3,25c-3.1,10.9-9.6,13.6-13.3,14.3C241.8,132.4,241,132.5,240.2,132.5"/>
			</g>
		</g>
		<g class="st1">
			<g>
				<defs>
					<rect id="SVGID_33_" x="224.9" y="278.3" width="61.1" height="101.1"/>
				</defs>
				<clipPath id="SVGID_34_">
					<use xlink:href="#SVGID_33_"  style="overflow:visible;"/>
				</clipPath>
				<path class="st17" d="M280.9,379.4c-2.7,0-5-2.1-5.1-4.9c0-0.1-0.6-12.8-7-29.9c-5.8-15.6-17.9-38.2-41.9-57.3
					c-2.2-1.7-2.6-5-0.8-7.2c1.7-2.2,5-2.6,7.2-0.8c26.1,20.6,39,45.2,45.3,62.1c6.8,18.5,7.5,32,7.5,32.6c0.1,2.8-2.1,5.2-4.9,5.3
					C281,379.4,281,379.4,280.9,379.4"/>
			</g>
		</g>
		<g class="st1">
			<g>
				<defs>
					<rect id="SVGID_35_" x="275.7" y="299.8" width="30.3" height="79.5"/>
				</defs>
				<clipPath id="SVGID_36_">
					<use xlink:href="#SVGID_35_"  style="overflow:visible;"/>
				</clipPath>
				<path class="st18" d="M280.9,379.4c-2.7,0-4.9-2.1-5.1-4.8c-0.1-1.7-2-41.9,21.1-72.7c1.7-2.3,4.9-2.7,7.1-1
					c2.3,1.7,2.7,4.9,1,7.1c-20.8,27.8-19.1,65.6-19,66c0.2,2.8-2,5.2-4.8,5.4C281.1,379.4,281,379.4,280.9,379.4"/>
			</g>
		</g>
		<g class="st1">
			<g>
				<defs>
					<rect id="SVGID_37_" x="273.6" y="272.7" width="32.5" height="37.4"/>
				</defs>
				<clipPath id="SVGID_38_">
					<use xlink:href="#SVGID_37_"  style="overflow:visible;"/>
				</clipPath>
				<path class="st19" d="M300.9,310c-0.5,0-1.1-0.1-1.6-0.3c-21.2-7.2-25.5-30.2-25.6-31.1c-0.5-2.8,1.4-5.4,4.1-5.9
					c2.8-0.5,5.4,1.4,5.9,4.1c0.1,0.3,3.5,18,18.9,23.3c2.7,0.9,4.1,3.8,3.2,6.5C305,308.7,303.1,310,300.9,310"/>
			</g>
		</g>
		<g class="st1">
			<g>
				<defs>
					<rect id="SVGID_39_" x="72.7" y="104.3" width="62.6" height="104.8"/>
				</defs>
				<clipPath id="SVGID_40_">
					<use xlink:href="#SVGID_39_"  style="overflow:visible;"/>
				</clipPath>
				<path class="st20" d="M96.8,209.2c-0.4,0-0.8-0.1-1.3-0.2c-7.1-1.8-13.3-7.1-17.4-15.1c-7-13.4-7.3-31.6-0.7-48.7
					c4.9-12.7,13.6-24.4,24.1-32.1c10.7-7.9,21.8-10.7,30.5-7.6c2.7,0.9,4,3.9,3.1,6.5c-0.9,2.7-3.9,4-6.5,3.1
					c-5.2-1.9-13.3,0.5-21,6.2c-8.9,6.5-16.4,16.6-20.6,27.5c-5.4,14.2-5.3,29.6,0.3,40.3c2.8,5.3,6.6,8.8,10.8,9.9
					c2.7,0.7,4.4,3.5,3.7,6.2C101.2,207.6,99.1,209.2,96.8,209.2"/>
			</g>
		</g>
		<g class="st1">
			<g>
				<defs>
					<rect id="SVGID_41_" x="91.7" y="177.6" width="52.3" height="31.6"/>
				</defs>
				<clipPath id="SVGID_42_">
					<use xlink:href="#SVGID_41_"  style="overflow:visible;"/>
				</clipPath>
				<path class="st21" d="M96.8,209.1c-0.2,0-0.3,0-0.5,0c-2.8-0.2-4.9-2.7-4.6-5.5c0.1-1.4,0.4-2.9,0.7-4.3
					c1.8-7.4,6.4-13.7,12.9-17.6c6.5-4,14.2-5.1,21.6-3.3c6.4,1.6,12.1,5.4,16.1,10.7c1.7,2.3,1.2,5.5-1,7.1c-2.3,1.7-5.5,1.2-7.1-1
					c-2.5-3.4-6.2-5.8-10.3-6.9c-4.8-1.2-9.7-0.4-13.9,2.1c-4.2,2.5-7.1,6.6-8.3,11.3c-0.2,0.9-0.4,1.8-0.5,2.7
					C101.7,207.2,99.4,209.1,96.8,209.1"/>
			</g>
		</g>
		<g class="st1">
			<g>
				<defs>
					<rect id="SVGID_43_" x="91.6" y="199" width="69.5" height="63.3"/>
				</defs>
				<clipPath id="SVGID_44_">
					<use xlink:href="#SVGID_43_"  style="overflow:visible;"/>
				</clipPath>
				<path class="st22" d="M156,262.3c-1.8,0-3.5-0.9-4.4-2.5c-9.7-16.6-19.1-20.7-38.3-25.9c-13.7-3.7-22.7-16.4-21.5-30.2
					c0.3-2.8,2.7-4.9,5.5-4.6c2.8,0.3,4.9,2.7,4.6,5.5c-0.8,8.9,5.1,17,14,19.5c19.1,5.2,32.5,10.1,44.5,30.6c1.4,2.4,0.6,5.6-1.8,7
					C157.7,262,156.9,262.3,156,262.3"/>
			</g>
		</g>
		<g class="st1">
			<g>
				<defs>
					<rect id="SVGID_45_" x="327.4" y="204.3" width="57.5" height="37.6"/>
				</defs>
				<clipPath id="SVGID_46_">
					<use xlink:href="#SVGID_45_"  style="overflow:visible;"/>
				</clipPath>
				<path class="st23" d="M356.1,241.9c-6.8,0-13.6-2.4-19-7.2c-6.9-6.1-10.5-15.2-9.6-24.4c0.3-2.8,2.8-4.9,5.6-4.6
					c2.8,0.3,4.9,2.8,4.6,5.6c-0.6,5.9,1.7,11.8,6.2,15.7c7.7,6.8,19.4,6,26.2-1.6c3.7-4.2,5.3-9.7,4.4-15.2
					c-0.4-2.8,1.5-5.4,4.2-5.8c2.8-0.4,5.4,1.5,5.8,4.2c1.4,8.5-1.1,17.1-6.8,23.6C372,238.6,364.1,241.9,356.1,241.9"/>
			</g>
		</g>
		<g class="st1">
			<g>
				<defs>
					<rect id="SVGID_47_" x="210.4" y="134.7" width="141.4" height="60.5"/>
				</defs>
				<clipPath id="SVGID_48_">
					<use xlink:href="#SVGID_47_"  style="overflow:visible;"/>
				</clipPath>
				<path class="st24" d="M308.6,195.3c-2.8,0-5.1-2.3-5.1-5.1c0-24.9-20.3-45.2-45.2-45.2c-15.8,0-30.1,8-38.5,21.4
					c-1.5,2.4-4.6,3.1-7,1.6c-2.4-1.5-3.1-4.6-1.6-7c10.2-16.4,27.8-26.2,47.1-26.2c30.6,0,55.4,24.9,55.4,55.4
					C313.7,193,311.4,195.3,308.6,195.3"/>
				<g class="st25">
					<g>
						<defs>
							<rect id="SVGID_49_" x="300.9" y="146.8" width="50.8" height="36.7"/>
						</defs>
						<clipPath id="SVGID_50_">
							<use xlink:href="#SVGID_49_"  style="overflow:visible;"/>
						</clipPath>
						<path class="st26" d="M320.1,183.4c-6,0-11.8-1.7-16.9-4.9c-2.4-1.5-3.1-4.7-1.6-7c1.5-2.4,4.7-3.1,7-1.6
							c3.4,2.2,7.4,3.3,11.4,3.3c11.8,0,21.4-9.6,21.4-21.4c0-2.8,2.3-5.1,5.1-5.1c2.8,0,5.1,2.3,5.1,5.1
							C351.7,169.3,337.6,183.4,320.1,183.4"/>
					</g>
				</g>
			</g>
		</g>
		<path class="st27" d="M155.3,393c0-2.1,0.4-4,1.1-5.7s1.7-3,3-4.2c1.3-1.1,2.8-2,4.5-2.6c1.8-0.6,3.7-0.9,5.9-0.9
			c2.6,0,4.6,0.3,6.1,0.8c1.5,0.6,2.5,1.2,3.2,1.8c0.4,0.4,0.7,0.9,0.9,1.4c0.2,0.5,0.3,1,0.3,1.7s-0.1,1.3-0.3,1.8
			c-0.2,0.6-0.4,1.1-0.7,1.5c-0.3,0.4-0.6,0.8-0.8,1.1c-0.3,0.3-0.5,0.5-0.6,0.6c-0.7-0.3-1.6-0.7-2.7-1c-1-0.3-2.2-0.5-3.4-0.5
			c-1.6,0-3,0.5-4.2,1.4c-1.1,1-1.7,2.5-1.7,4.7v18.5h-10.5V393z"/>
		<path class="st27" d="M192.9,401.6c0.1,0.5,0.3,1,0.7,1.5c0.4,0.5,0.9,1,1.6,1.4c0.7,0.4,1.5,0.8,2.6,1c1,0.3,2.3,0.4,3.8,0.4
			c1.1,0,2.2-0.1,3.2-0.3c1-0.2,1.9-0.4,2.6-0.6c0.7-0.2,1.3-0.4,1.8-0.6c0.5-0.2,0.8-0.4,0.8-0.5l3.6,7.3c-0.3,0.2-0.9,0.5-1.7,0.9
			c-0.8,0.4-1.8,0.8-3,1.2c-1.2,0.4-2.6,0.7-4.3,1c-1.6,0.3-3.4,0.4-5.4,0.4c-2.4,0-4.7-0.4-6.8-1.2c-2.1-0.8-4-1.9-5.6-3.4
			c-1.6-1.5-2.8-3.3-3.7-5.5c-0.9-2.2-1.4-4.6-1.4-7.4c0-2.6,0.5-5,1.4-7.1c0.9-2.2,2.2-4,3.8-5.5c1.6-1.5,3.5-2.7,5.7-3.5
			c2.2-0.8,4.5-1.3,7-1.3c2.3,0,4.4,0.3,6.3,0.9c1.9,0.6,3.4,1.5,4.7,2.6c1.3,1.1,2.3,2.3,2.9,3.7c0.7,1.4,1,2.8,1,4.3
			c0,1.6-0.3,3-0.8,4.3c-0.6,1.3-1.6,2.4-3,3.2s-3.4,1.6-5.9,2c-2.5,0.5-5.7,0.7-9.5,0.7H192.9z M192.4,394.8c2.9,0,5.2-0.1,6.8-0.3
			c1.6-0.2,2.8-0.5,3.6-0.8c0.8-0.3,1.3-0.7,1.4-1.2c0.2-0.4,0.3-0.9,0.3-1.3c0-0.9-0.4-1.7-1.2-2.4c-0.8-0.7-2.1-1-3.7-1
			c-1.2,0-2.2,0.2-3.1,0.6c-0.9,0.4-1.6,0.9-2.2,1.6c-0.6,0.6-1,1.4-1.3,2.2C192.6,393.1,192.4,393.9,192.4,394.8"/>
		<path class="st28" d="M219.9,379.6c0-2.4,0.3-4.4,1-6.2c0.7-1.7,1.6-3.2,2.8-4.3c1.2-1.1,2.7-1.9,4.4-2.5c1.7-0.5,3.6-0.8,5.7-0.8
			c1.8,0,3.4,0.1,4.8,0.4c1.4,0.3,2.5,0.7,3.5,1.3c0.5,0.3,1,0.7,1.5,1.3c0.5,0.6,0.7,1.4,0.7,2.3c0,1-0.3,1.9-0.9,2.8
			c-0.6,0.8-1.2,1.4-1.9,1.8c-0.5-0.5-1.3-0.9-2.4-1.3c-1.1-0.4-2.2-0.6-3.4-0.6c-1.6,0-2.9,0.4-3.9,1.3c-1,0.9-1.4,2.2-1.4,3.9v1.4
			h7.2c1.9,0,3.3,0.4,4.2,1.2c0.8,0.8,1.2,2,1.2,3.5c0,1.1-0.2,2.2-0.5,3.2c-0.3,1-0.6,1.6-0.8,1.9h-11.3v23.4h-10.5V379.6z"/>
		<path class="st28" d="M277.2,413.6c-0.3,0.1-0.8,0.2-1.8,0.3c-0.9,0.1-2,0.2-3.4,0.4c-1.4,0.1-2.9,0.2-4.7,0.3
			c-1.8,0.1-3.6,0.1-5.6,0.1c-3.3,0-6-0.3-8.2-0.9c-2.2-0.6-3.9-1.4-5.2-2.4c-1.3-1-2.2-2.2-2.7-3.5c-0.5-1.3-0.8-2.7-0.8-4.2
			c0-4,1.3-6.8,3.8-8.5c2.6-1.7,6.6-2.6,12.2-2.6c1.4,0,2.5,0,3.5,0.1c0.9,0,1.7,0.1,2.3,0.2c0-1.5-0.6-2.7-1.9-3.6
			c-1.2-0.9-3.3-1.3-6.1-1.3c-1.3,0-2.5,0.1-3.5,0.2c-1,0.2-1.9,0.3-2.6,0.6c-0.7,0.2-1.3,0.4-1.7,0.6c-0.4,0.2-0.7,0.4-0.9,0.5
			c-0.1-0.1-0.3-0.3-0.5-0.5c-0.3-0.3-0.5-0.6-0.8-1c-0.3-0.4-0.5-0.9-0.7-1.4c-0.2-0.5-0.3-1.1-0.3-1.7c0-3.8,3.9-5.7,11.6-5.7
			c2.5,0,4.9,0.2,7.1,0.7c2.2,0.5,4.1,1.2,5.8,2.3s2.9,2.6,3.8,4.4c0.9,1.8,1.4,4.1,1.4,6.8V413.6z M266.7,400
			c-0.4-0.1-1-0.2-1.7-0.2c-0.8-0.1-1.9-0.1-3.4-0.1c-1.3,0-2.4,0.1-3.2,0.3c-0.8,0.2-1.5,0.5-1.9,0.9c-0.5,0.4-0.8,0.8-0.9,1.3
			c-0.2,0.5-0.3,1-0.3,1.5c0,0.4,0.1,0.8,0.2,1.2c0.1,0.4,0.4,0.8,0.8,1.2c0.4,0.3,1.1,0.6,2,0.9c0.9,0.2,2,0.4,3.4,0.4
			c1.1,0,2.2,0,3.1-0.1c1-0.1,1.6-0.1,1.9-0.2V400z"/>
		<path class="st28" d="M314.3,410.9c-0.5,0.3-1.1,0.7-1.9,1.1c-0.8,0.4-1.7,0.8-2.8,1.2c-1.1,0.4-2.4,0.7-3.8,1
			c-1.4,0.3-3,0.4-4.7,0.4c-2.3,0-4.6-0.4-6.8-1.1c-2.2-0.7-4.1-1.8-5.8-3.3c-1.6-1.5-3-3.3-4-5.5c-1-2.2-1.5-4.7-1.5-7.6
			c0-2.8,0.5-5.3,1.5-7.4c1-2.2,2.3-4,4-5.5c1.7-1.5,3.6-2.6,5.9-3.4c2.2-0.8,4.6-1.2,7.1-1.2c2.3,0,4.5,0.3,6.5,0.9
			c2,0.6,3.5,1.4,4.5,2.4c0.5,0.5,0.9,1,1.1,1.5c0.3,0.5,0.4,1.2,0.4,1.9s-0.1,1.4-0.4,2c-0.3,0.6-0.6,1.1-1,1.6
			c-0.4,0.5-0.8,0.9-1.2,1.3c-0.4,0.4-0.8,0.6-1.1,0.8c-0.8-0.8-1.9-1.5-3.2-2.2c-1.4-0.7-3-1-4.9-1c-1.1,0-2.2,0.2-3.2,0.5
			c-1,0.3-1.9,0.9-2.7,1.6c-0.8,0.7-1.4,1.6-1.8,2.6c-0.5,1-0.7,2.2-0.7,3.6c0,1.4,0.2,2.7,0.7,3.7c0.5,1,1.1,1.9,1.8,2.5
			s1.7,1.1,2.7,1.4c1,0.3,2.1,0.5,3.3,0.5c1,0,1.9-0.1,2.8-0.3c0.8-0.2,1.6-0.4,2.2-0.7s1.2-0.5,1.6-0.7c0.4-0.2,0.7-0.4,0.8-0.6
			L314.3,410.9z"/>
		<path class="st28" d="M318,375.5c0-1.7,0.5-2.9,1.5-3.6c1-0.7,2.3-1,4-1c1.2,0,2.2,0.1,3.2,0.4c1,0.3,1.6,0.5,1.8,0.6v8.8h7.5
			c1.9,0,3.3,0.4,4.2,1.2c0.8,0.8,1.2,2,1.2,3.5c0,1.1-0.2,2.2-0.5,3.2c-0.3,1-0.6,1.6-0.8,1.9h-11.6v10.2c0,1,0.2,1.8,0.5,2.4
			c0.3,0.6,0.7,1.1,1.1,1.4c0.5,0.3,1,0.6,1.6,0.7c0.6,0.1,1.2,0.2,1.8,0.2c1.2,0,2.3-0.2,3.3-0.6s1.7-0.7,2.1-0.9l4.1,7.1
			c-0.4,0.3-1,0.7-1.7,1.2c-0.7,0.4-1.6,0.8-2.7,1.2c-1,0.4-2.2,0.7-3.5,1c-1.3,0.3-2.7,0.4-4.1,0.4c-4.1,0-7.3-1.1-9.6-3.2
			c-2.3-2.1-3.4-5-3.4-8.6V375.5z"/>
		<path class="st28" d="M344.3,397.2c0-2.5,0.5-4.8,1.4-7c1-2.1,2.3-4,3.9-5.5c1.7-1.6,3.6-2.8,5.8-3.7c2.2-0.9,4.6-1.3,7.2-1.3
			c2.5,0,4.9,0.4,7.1,1.3c2.2,0.9,4.2,2.1,5.9,3.7s3,3.4,3.9,5.5c1,2.1,1.4,4.4,1.4,7c0,2.5-0.5,4.8-1.4,7c-1,2.1-2.3,4-3.9,5.5
			s-3.6,2.8-5.9,3.7c-2.2,0.9-4.6,1.3-7.1,1.3c-2.6,0-4.9-0.4-7.2-1.3c-2.2-0.9-4.2-2.1-5.8-3.7c-1.7-1.6-3-3.4-3.9-5.5
			C344.7,402,344.3,399.7,344.3,397.2 M362.6,405.3c1.1,0,2.1-0.2,3-0.6c0.9-0.4,1.7-1,2.4-1.7c0.7-0.7,1.2-1.6,1.6-2.6
			c0.4-1,0.6-2.1,0.6-3.2c0-1.2-0.2-2.3-0.6-3.2c-0.4-1-0.9-1.9-1.6-2.6c-0.7-0.7-1.5-1.3-2.4-1.7c-0.9-0.4-1.9-0.6-3-0.6
			c-1.1,0-2.1,0.2-3.1,0.6c-0.9,0.4-1.7,1-2.4,1.7c-0.7,0.7-1.2,1.6-1.6,2.6c-0.4,1-0.6,2.1-0.6,3.2c0,1.2,0.2,2.3,0.6,3.2
			c0.4,1,0.9,1.9,1.6,2.6c0.7,0.7,1.5,1.3,2.4,1.7C360.5,405.1,361.5,405.3,362.6,405.3"/>
		<path class="st28" d="M386.8,393c0-2.1,0.4-4,1.1-5.7s1.7-3,3-4.2c1.3-1.1,2.8-2,4.5-2.6c1.8-0.6,3.7-0.9,5.9-0.9
			c2.6,0,4.6,0.3,6.1,0.8c1.5,0.6,2.5,1.2,3.2,1.8c0.4,0.4,0.7,0.9,0.9,1.4c0.2,0.5,0.3,1,0.3,1.7s-0.1,1.3-0.3,1.8
			c-0.2,0.6-0.4,1.1-0.7,1.5c-0.3,0.4-0.6,0.8-0.8,1.1c-0.3,0.3-0.5,0.5-0.6,0.6c-0.7-0.3-1.6-0.7-2.7-1c-1-0.3-2.2-0.5-3.4-0.5
			c-1.6,0-3,0.5-4.2,1.4c-1.1,1-1.7,2.5-1.7,4.7v18.5h-10.5V393z"/>
	</g>
</g>
<g class="st29">
	<g class="st30">
		<defs>
			<rect id="SVGID_51_" x="3.3" y="-4.8" width="486" height="477"/>
		</defs>
		<clipPath id="SVGID_52_">
			<use xlink:href="#SVGID_51_"  style="overflow:visible;"/>
		</clipPath>
		<g class="st31">
			<defs>
				<rect id="SVGID_53_" x="3.3" y="-4.8" width="486" height="477"/>
			</defs>
			<clipPath id="SVGID_54_">
				<use xlink:href="#SVGID_53_"  style="overflow:visible;"/>
			</clipPath>
			<g class="st32">
				<defs>
					<rect id="SVGID_55_" x="3.3" y="-4.8" width="486" height="477"/>
				</defs>
				<clipPath id="SVGID_56_">
					<use xlink:href="#SVGID_55_"  style="overflow:visible;"/>
				</clipPath>
				<g class="st33">
					<g>
						<defs>
							<rect id="SVGID_57_" x="320.3" y="224.4" width="79.1" height="42.7"/>
						</defs>
						<clipPath id="SVGID_58_">
							<use xlink:href="#SVGID_57_"  style="overflow:visible;"/>
						</clipPath>
						<g class="st34">
							<defs>
								<rect id="SVGID_59_" x="320.3" y="224.4" width="79.1" height="42.7"/>
							</defs>
							<clipPath id="SVGID_60_">
								<use xlink:href="#SVGID_59_"  style="overflow:visible;"/>
							</clipPath>
							<path class="st35" d="M351.3,267c-4,0-8-0.5-12-1.5c-6.1-1.5-11.8-4.1-16.9-7.7c-2.3-1.6-2.9-4.8-1.2-7.1
								c1.6-2.3,4.8-2.9,7.1-1.2c4,2.8,8.6,4.9,13.4,6.1c20.8,5.1,41.7-7,47.6-27.6c0.8-2.7,3.6-4.3,6.3-3.5
								c2.7,0.8,4.3,3.6,3.5,6.3c-3.6,12.4-11.7,22.9-22.9,29.4C368.6,264.7,360,267,351.3,267"/>
						</g>
					</g>
				</g>
				<g class="st33">
					<g>
						<defs>
							<rect id="SVGID_61_" x="362.3" y="135.8" width="44.8" height="48.2"/>
						</defs>
						<clipPath id="SVGID_62_">
							<use xlink:href="#SVGID_61_"  style="overflow:visible;"/>
						</clipPath>
						<g class="st36">
							<defs>
								<rect id="SVGID_63_" x="362.3" y="135.8" width="44.8" height="48.2"/>
							</defs>
							<clipPath id="SVGID_64_">
								<use xlink:href="#SVGID_63_"  style="overflow:visible;"/>
							</clipPath>
							<path class="st37" d="M399.1,184c-0.8,0-1.6-0.2-2.3-0.6c-2.5-1.3-3.5-4.4-2.2-6.9c0.7-1.5,1.3-3,1.7-4.6
								c2.8-11.2-4.1-22.6-15.4-25.3c-3.9-1-8-0.8-11.8,0.5c-2.7,0.9-5.6-0.5-6.5-3.1c-0.9-2.7,0.5-5.6,3.1-6.5
								c5.7-2,11.8-2.3,17.6-0.8c16.7,4.1,26.9,21,22.8,37.7c-0.6,2.4-1.4,4.7-2.6,6.8C402.7,183,400.9,184,399.1,184"/>
						</g>
					</g>
				</g>
				<g class="st33">
					<g>
						<defs>
							<rect id="SVGID_65_" x="305" y="93.7" width="68.1" height="53.8"/>
						</defs>
						<clipPath id="SVGID_66_">
							<use xlink:href="#SVGID_65_"  style="overflow:visible;"/>
						</clipPath>
						<g class="st38">
							<defs>
								<rect id="SVGID_67_" x="305" y="93.7" width="68.1" height="53.8"/>
							</defs>
							<clipPath id="SVGID_68_">
								<use xlink:href="#SVGID_67_"  style="overflow:visible;"/>
							</clipPath>
							<path class="st39" d="M367.4,147.5c-0.4,0-0.8,0-1.2-0.1c-2.7-0.6-4.4-3.4-3.8-6.1c1.8-7.8-3.1-18.9-12.1-27
								c-11.4-10.4-26.3-13.5-32.4-6.7c-4.4,4.8-3.5,14,2.3,22.9c1.5,2.4,0.8,5.5-1.5,7c-2.4,1.5-5.5,0.8-7-1.5
								c-8.4-13.1-8.9-26.9-1.2-35.3c10.2-11.2,30.8-8.6,46.9,6c11.9,10.9,17.9,25.3,15.1,36.9C371.8,145.9,369.7,147.5,367.4,147.5
								"/>
						</g>
					</g>
				</g>
				<g class="st33">
					<g>
						<defs>
							<rect id="SVGID_69_" x="228.2" y="267.9" width="58.9" height="26.9"/>
						</defs>
						<clipPath id="SVGID_70_">
							<use xlink:href="#SVGID_69_"  style="overflow:visible;"/>
						</clipPath>
						<g class="st40">
							<defs>
								<rect id="SVGID_71_" x="228.2" y="267.9" width="58.9" height="26.9"/>
							</defs>
							<clipPath id="SVGID_72_">
								<use xlink:href="#SVGID_71_"  style="overflow:visible;"/>
							</clipPath>
							<path class="st41" d="M255.9,294.8c-2.7,0-5.4-0.3-8-1c-7.5-1.8-13.9-6-18.6-12.1c-1.7-2.2-1.3-5.4,0.9-7.2
								c2.2-1.7,5.4-1.3,7.2,0.9c3.3,4.2,7.8,7.1,13,8.4c11,2.7,22.3-2.8,27-13c1.2-2.6,4.2-3.7,6.8-2.5c2.6,1.2,3.7,4.2,2.5,6.8
								C281,287.3,268.9,294.8,255.9,294.8"/>
						</g>
					</g>
				</g>
				<g class="st33">
					<g>
						<defs>
							<rect id="SVGID_73_" x="364.9" y="170" width="50.9" height="64.6"/>
						</defs>
						<clipPath id="SVGID_74_">
							<use xlink:href="#SVGID_73_"  style="overflow:visible;"/>
						</clipPath>
						<g class="st42">
							<defs>
								<rect id="SVGID_75_" x="364.9" y="170" width="50.9" height="64.6"/>
							</defs>
							<clipPath id="SVGID_76_">
								<use xlink:href="#SVGID_75_"  style="overflow:visible;"/>
							</clipPath>
							<path class="st43" d="M394.4,234.6c-2.5,0-4.7-1.8-5-4.3c-0.4-2.8,1.5-5.4,4.3-5.8c3.7-0.6,7-3.2,9.2-7.4
								c2.5-4.7,3.4-10.8,2.4-16.9c-0.9-6.2-3.5-11.7-7.3-15.4c-3.4-3.4-7.3-4.9-11-4.4c-6.1,0.9-10.8,7.5-11.8,16.3
								c-0.3,2.8-2.8,4.8-5.6,4.5c-2.8-0.3-4.8-2.8-4.5-5.6c1.5-13.4,9.7-23.6,20.4-25.2c7-1.1,14,1.5,19.8,7.2
								c5.3,5.3,9,12.8,10.2,21.1c1.3,8.3,0,16.6-3.5,23.2c-3.8,7.2-9.7,11.7-16.7,12.8C394.9,234.6,394.6,234.6,394.4,234.6"/>
						</g>
					</g>
				</g>
				<g class="st33">
					<g>
						<defs>
							<rect id="SVGID_77_" x="242.5" y="70.9" width="73.8" height="43.2"/>
						</defs>
						<clipPath id="SVGID_78_">
							<use xlink:href="#SVGID_77_"  style="overflow:visible;"/>
						</clipPath>
						<g class="st44">
							<defs>
								<rect id="SVGID_79_" x="242.5" y="70.9" width="73.8" height="43.2"/>
							</defs>
							<clipPath id="SVGID_80_">
								<use xlink:href="#SVGID_79_"  style="overflow:visible;"/>
							</clipPath>
							<path class="st45" d="M311.2,114.1c-2.5,0-4.7-1.8-5-4.4c-1.9-13.5-11.8-24.4-25.1-27.6c-10.7-2.6-21.9,0.2-30.1,7.5
								c-2.1,1.9-5.3,1.7-7.2-0.4c-1.9-2.1-1.7-5.3,0.4-7.2c10.7-9.5,25.4-13.2,39.3-9.8c17.3,4.3,30.2,18.4,32.7,36.1
								c0.4,2.8-1.5,5.4-4.3,5.8C311.7,114,311.4,114.1,311.2,114.1"/>
						</g>
					</g>
				</g>
				<g class="st33">
					<g>
						<defs>
							<rect id="SVGID_81_" x="120.7" y="97.9" width="38.8" height="43.5"/>
						</defs>
						<clipPath id="SVGID_82_">
							<use xlink:href="#SVGID_81_"  style="overflow:visible;"/>
						</clipPath>
						<g class="st46">
							<defs>
								<rect id="SVGID_83_" x="120.7" y="97.9" width="38.8" height="43.5"/>
							</defs>
							<clipPath id="SVGID_84_">
								<use xlink:href="#SVGID_83_"  style="overflow:visible;"/>
							</clipPath>
							<path class="st47" d="M142.4,141.4c-1.7,0-3.4-0.2-5.2-0.6c-5.6-1.4-10.4-4.9-13.4-9.9c-3-5-3.9-10.8-2.5-16.5
								c2.9-11.7,14.7-18.8,26.3-16c1,0.2,1.8,0.5,2.7,0.8c2.6,1,3.9,4,2.9,6.6c-1,2.6-4,3.9-6.6,2.9c-0.4-0.2-0.9-0.3-1.4-0.4
								c-6.2-1.5-12.5,2.3-14,8.5c-0.7,3-0.3,6.1,1.3,8.8c1.6,2.6,4.1,4.5,7.1,5.2c4,1,8.2-0.2,11.1-3.2c2-2,5.2-2.1,7.2-0.1
								c2,2,2.1,5.2,0.1,7.2C153.9,139.1,148.2,141.4,142.4,141.4"/>
						</g>
					</g>
				</g>
				<g class="st33">
					<g>
						<defs>
							<rect id="SVGID_85_" x="154.2" y="247.1" width="91.4" height="47.9"/>
						</defs>
						<clipPath id="SVGID_86_">
							<use xlink:href="#SVGID_85_"  style="overflow:visible;"/>
						</clipPath>
						<g class="st48">
							<defs>
								<rect id="SVGID_87_" x="154.2" y="247.1" width="91.4" height="47.9"/>
							</defs>
							<clipPath id="SVGID_88_">
								<use xlink:href="#SVGID_87_"  style="overflow:visible;"/>
							</clipPath>
							<path class="st49" d="M203.4,295c-3.9,0-7.9-0.5-11.8-1.4c-19.5-4.8-34.2-20.7-37.4-40.6c-0.4-2.8,1.4-5.4,4.2-5.8
								c2.8-0.4,5.4,1.4,5.8,4.2c2.5,15.8,14.2,28.5,29.8,32.3c16,3.9,32.9-2.5,42.2-16.1c1.6-2.3,4.8-2.9,7.1-1.3
								c2.3,1.6,2.9,4.8,1.3,7.1C235.2,287.1,219.6,295,203.4,295"/>
						</g>
					</g>
				</g>
				<path class="st50" d="M159.2,257.3c-2.5,0-4.6-1.8-5-4.3c-1.1-6.6-0.8-13.3,0.8-19.8c9.4-38.4,45.4-39.1,74.4-39.6
					c25.5-0.5,41.3-1.5,44.9-15.8c0.7-2.7,3.5-4.4,6.2-3.7c2.7,0.7,4.4,3.5,3.7,6.2c-5.7,22.6-30.5,23-54.6,23.5
					c-28.1,0.6-57.1,1.1-64.7,31.9c-1.3,5.2-1.5,10.5-0.7,15.8c0.4,2.8-1.4,5.4-4.2,5.8C159.8,257.3,159.5,257.3,159.2,257.3"/>
				<g class="st33">
					<g>
						<defs>
							<rect id="SVGID_89_" x="242.9" y="153.3" width="42" height="30.8"/>
						</defs>
						<clipPath id="SVGID_90_">
							<use xlink:href="#SVGID_89_"  style="overflow:visible;"/>
						</clipPath>
						<g class="st51">
							<defs>
								<rect id="SVGID_91_" x="242.9" y="153.3" width="42" height="30.8"/>
							</defs>
							<clipPath id="SVGID_92_">
								<use xlink:href="#SVGID_91_"  style="overflow:visible;"/>
							</clipPath>
							<path class="st52" d="M279.3,184.1c-0.4,0-0.8,0-1.2-0.2c-2.7-0.7-4.4-3.5-3.7-6.2c0.7-3,0.3-6.1-1.3-8.7
								c-1.6-2.7-4.2-4.5-7.2-5.3c-5.3-1.3-10.9,1.3-13.2,6.3c-1.2,2.5-4.2,3.6-6.8,2.4c-2.5-1.2-3.6-4.2-2.4-6.8
								c4.4-9.3,14.9-14.3,24.9-11.8c5.7,1.4,10.5,4.9,13.5,9.9c3,5,3.9,10.8,2.5,16.4C283.6,182.6,281.6,184.1,279.3,184.1"/>
						</g>
					</g>
				</g>
				<g class="st33">
					<g>
						<defs>
							<rect id="SVGID_93_" x="112.7" y="130.3" width="30.8" height="31.3"/>
						</defs>
						<clipPath id="SVGID_94_">
							<use xlink:href="#SVGID_93_"  style="overflow:visible;"/>
						</clipPath>
						<g class="st53">
							<defs>
								<rect id="SVGID_95_" x="112.7" y="130.3" width="30.8" height="31.3"/>
							</defs>
							<clipPath id="SVGID_96_">
								<use xlink:href="#SVGID_95_"  style="overflow:visible;"/>
							</clipPath>
							<path class="st54" d="M118.4,161.5c-2.2,0-4.3-1.5-4.9-3.7c-1-3.6-1-7.3-0.1-10.9c2.9-11.7,14.7-18.8,26.3-16
								c2.7,0.7,4.4,3.4,3.7,6.2c-0.7,2.7-3.4,4.4-6.2,3.7c-6.2-1.5-12.5,2.3-14,8.5c-0.5,1.9-0.4,3.9,0.1,5.8
								c0.7,2.7-0.8,5.5-3.6,6.3C119.3,161.5,118.8,161.5,118.4,161.5"/>
						</g>
					</g>
				</g>
				<g class="st33">
					<g>
						<defs>
							<rect id="SVGID_97_" x="277.6" y="228.1" width="52.8" height="52.9"/>
						</defs>
						<clipPath id="SVGID_98_">
							<use xlink:href="#SVGID_97_"  style="overflow:visible;"/>
						</clipPath>
						<g class="st55">
							<defs>
								<rect id="SVGID_99_" x="277.6" y="228.1" width="52.8" height="52.9"/>
							</defs>
							<clipPath id="SVGID_100_">
								<use xlink:href="#SVGID_99_"  style="overflow:visible;"/>
							</clipPath>
							<path class="st56" d="M297.7,281c-5.4,0-11-1-16.7-2.9c-2.7-0.9-4.1-3.8-3.2-6.5c0.9-2.7,3.8-4.1,6.5-3.2
								c9.6,3.3,19.4,3.1,26.2-0.6c4.8-2.6,7.9-6.8,9.3-12.4c1.8-7.4-2.7-14.9-10.1-16.7c-3.4-0.8-8.5-0.3-12.2,2.7
								c-2.2,1.8-5.4,1.4-7.2-0.8c-1.8-2.2-1.4-5.4,0.8-7.2c6.9-5.5,15.6-5.9,21-4.6c12.9,3.2,20.8,16.2,17.6,29.1
								c-2.1,8.4-7,15-14.3,18.9C310.3,279.6,304.2,281,297.7,281"/>
						</g>
					</g>
				</g>
				<g class="st33">
					<g>
						<defs>
							<rect id="SVGID_101_" x="191.8" y="234.1" width="96" height="44.2"/>
						</defs>
						<clipPath id="SVGID_102_">
							<use xlink:href="#SVGID_101_"  style="overflow:visible;"/>
						</clipPath>
						<g class="st57">
							<defs>
								<rect id="SVGID_103_" x="191.8" y="234.1" width="96" height="44.2"/>
							</defs>
							<clipPath id="SVGID_104_">
								<use xlink:href="#SVGID_103_"  style="overflow:visible;"/>
							</clipPath>
							<path class="st58" d="M282.7,278.4c-0.6,0-1.1-0.1-1.7-0.3c-12.4-4.3-21.4-11.9-29.4-18.7c-7.8-6.6-14.6-12.3-23.2-14.4
								c-5.8-1.4-11.7-0.5-16.7,2.5c-5,3-8.5,7.9-9.9,13.6c-0.7,2.7-3.4,4.4-6.2,3.7c-2.7-0.7-4.4-3.4-3.7-6.2
								c2.1-8.4,7.2-15.4,14.5-19.9c7.3-4.5,16-5.8,24.5-3.7c10.9,2.7,19.2,9.7,27.3,16.5c7.7,6.5,15.6,13.2,26.2,16.8
								c2.7,0.9,4.1,3.8,3.2,6.5C286.8,277,284.9,278.4,282.7,278.4"/>
						</g>
					</g>
				</g>
				<g class="st33">
					<g>
						<defs>
							<rect id="SVGID_105_" x="143.3" y="78.3" width="74.7" height="101.5"/>
						</defs>
						<clipPath id="SVGID_106_">
							<use xlink:href="#SVGID_105_"  style="overflow:visible;"/>
						</clipPath>
						<g class="st59">
							<defs>
								<rect id="SVGID_107_" x="143.3" y="78.3" width="74.7" height="101.5"/>
							</defs>
							<clipPath id="SVGID_108_">
								<use xlink:href="#SVGID_107_"  style="overflow:visible;"/>
							</clipPath>
							<path class="st60" d="M172.9,179.8c-1.6,0-3.2-0.2-4.7-0.6c-5.1-1.3-9.5-4.3-12.2-8.7c-2.8-4.4-3.6-9.8-2.3-15.2
								c2.6-10.5,14.6-17.3,27.4-24.5c18.3-10.3,30-17.9,25.8-30c-1.3-3.9-3.4-6.7-6.4-8.5c-6.4-4-15.8-5-25.1-2.7
								c-10.5,2.6-19.2,9-22.2,16.4c-1.1,2.6-4,3.9-6.6,2.8c-2.6-1.1-3.9-4-2.8-6.6c4.2-10.5,15.4-19.1,29.2-22.5
								c12-2.9,24.3-1.4,33,4c5,3.1,8.6,7.8,10.6,13.8c7.3,21.1-13.6,32.8-30.4,42.2c-10.3,5.8-21,11.8-22.5,18
								c-0.7,2.7-0.3,5.2,1,7.3c1.3,2.1,3.4,3.5,5.9,4.2c2.5,0.6,5,0.2,7.2-1.1c2.2-1.3,3.7-3.4,4.3-5.9c0.7-2.7,3.4-4.4,6.2-3.7
								c2.7,0.7,4.4,3.4,3.7,6.2c-1.3,5.1-4.4,9.4-8.9,12.1C179.9,178.8,176.4,179.8,172.9,179.8"/>
						</g>
					</g>
				</g>
				<g class="st33">
					<g>
						<defs>
							<rect id="SVGID_109_" x="198.3" y="71.3" width="62" height="56.4"/>
						</defs>
						<clipPath id="SVGID_110_">
							<use xlink:href="#SVGID_109_"  style="overflow:visible;"/>
						</clipPath>
						<g class="st61">
							<defs>
								<rect id="SVGID_111_" x="198.3" y="71.3" width="62" height="56.4"/>
							</defs>
							<clipPath id="SVGID_112_">
								<use xlink:href="#SVGID_111_"  style="overflow:visible;"/>
							</clipPath>
							<path class="st62" d="M243.5,127.7c-4.3,0-8.5-1.9-10.6-4.9c-1.6-2.3-1.1-5.5,1.2-7.1c2.3-1.6,5.4-1.1,7,1.2
								c0.4,0.3,1.8,1,3.2,0.6c2.1-0.5,3.8-3,4.9-6.9c1.6-5.8,0.8-11.9-2.3-17.2c-3.3-5.6-8.7-9.6-15-11.2
								c-9.2-2.3-18.9,1.2-24.5,8.8c-1.7,2.3-4.9,2.7-7.1,1c-2.3-1.7-2.7-4.9-1.1-7.1c8.1-10.9,21.9-15.9,35.1-12.6
								c8.9,2.2,16.7,8,21.4,15.9c4.5,7.7,5.7,16.6,3.3,25c-3.1,10.9-9.6,13.6-13.3,14.3C245.1,127.6,244.3,127.7,243.5,127.7"/>
						</g>
					</g>
				</g>
				<g class="st33">
					<g>
						<defs>
							<rect id="SVGID_113_" x="228.2" y="273.5" width="61.1" height="101.1"/>
						</defs>
						<clipPath id="SVGID_114_">
							<use xlink:href="#SVGID_113_"  style="overflow:visible;"/>
						</clipPath>
						<g class="st63">
							<defs>
								<rect id="SVGID_115_" x="228.2" y="273.5" width="61.1" height="101.1"/>
							</defs>
							<clipPath id="SVGID_116_">
								<use xlink:href="#SVGID_115_"  style="overflow:visible;"/>
							</clipPath>
							<path class="st64" d="M284.2,374.6c-2.7,0-5-2.1-5.1-4.9c0-0.1-0.6-12.8-7-29.9c-5.8-15.6-17.9-38.2-41.9-57.3
								c-2.2-1.7-2.6-5-0.8-7.2c1.7-2.2,5-2.6,7.2-0.8c26.1,20.6,39,45.2,45.3,62.1c6.8,18.5,7.5,32,7.5,32.6
								c0.1,2.8-2.1,5.2-4.9,5.3C284.3,374.6,284.2,374.6,284.2,374.6"/>
						</g>
					</g>
				</g>
				<g class="st33">
					<g>
						<defs>
							<rect id="SVGID_117_" x="279" y="295.1" width="30.3" height="79.5"/>
						</defs>
						<clipPath id="SVGID_118_">
							<use xlink:href="#SVGID_117_"  style="overflow:visible;"/>
						</clipPath>
						<g class="st65">
							<defs>
								<rect id="SVGID_119_" x="279" y="295.1" width="30.3" height="79.5"/>
							</defs>
							<clipPath id="SVGID_120_">
								<use xlink:href="#SVGID_119_"  style="overflow:visible;"/>
							</clipPath>
							<path class="st66" d="M284.2,374.6c-2.7,0-4.9-2.1-5.1-4.8c-0.1-1.7-2-41.9,21.1-72.7c1.7-2.3,4.9-2.7,7.1-1
								c2.3,1.7,2.7,4.9,1,7.1c-20.8,27.8-19.1,65.6-19,66c0.2,2.8-2,5.2-4.8,5.4C284.4,374.6,284.3,374.6,284.2,374.6"/>
						</g>
					</g>
				</g>
				<g class="st33">
					<g>
						<defs>
							<rect id="SVGID_121_" x="276.9" y="267.9" width="32.5" height="37.4"/>
						</defs>
						<clipPath id="SVGID_122_">
							<use xlink:href="#SVGID_121_"  style="overflow:visible;"/>
						</clipPath>
						<g class="st67">
							<defs>
								<rect id="SVGID_123_" x="276.9" y="267.9" width="32.5" height="37.4"/>
							</defs>
							<clipPath id="SVGID_124_">
								<use xlink:href="#SVGID_123_"  style="overflow:visible;"/>
							</clipPath>
							<path class="st68" d="M304.2,305.3c-0.5,0-1.1-0.1-1.6-0.3c-21.2-7.2-25.5-30.2-25.6-31.1c-0.5-2.8,1.4-5.4,4.1-5.9
								c2.8-0.5,5.4,1.4,5.9,4.1c0.1,0.3,3.5,18,18.9,23.3c2.7,0.9,4.1,3.8,3.2,6.5C308.3,303.9,306.3,305.3,304.2,305.3"/>
						</g>
					</g>
				</g>
				<g class="st33">
					<g>
						<defs>
							<rect id="SVGID_125_" x="76" y="99.5" width="62.6" height="104.8"/>
						</defs>
						<clipPath id="SVGID_126_">
							<use xlink:href="#SVGID_125_"  style="overflow:visible;"/>
						</clipPath>
						<g class="st69">
							<defs>
								<rect id="SVGID_127_" x="76" y="99.5" width="62.6" height="104.8"/>
							</defs>
							<clipPath id="SVGID_128_">
								<use xlink:href="#SVGID_127_"  style="overflow:visible;"/>
							</clipPath>
							<path class="st70" d="M100.1,204.4c-0.4,0-0.8-0.1-1.3-0.2c-7.1-1.8-13.3-7.1-17.4-15.1c-7-13.4-7.3-31.6-0.7-48.7
								c4.9-12.7,13.6-24.4,24.1-32.1c10.7-7.9,21.8-10.7,30.5-7.6c2.7,0.9,4,3.9,3.1,6.5c-0.9,2.7-3.9,4-6.5,3.1
								c-5.2-1.9-13.3,0.5-21,6.2c-8.9,6.5-16.4,16.6-20.6,27.5c-5.4,14.2-5.3,29.6,0.3,40.3c2.8,5.3,6.6,8.8,10.8,9.9
								c2.7,0.7,4.4,3.5,3.7,6.2C104.5,202.8,102.4,204.4,100.1,204.4"/>
						</g>
					</g>
				</g>
				<g class="st33">
					<g>
						<defs>
							<rect id="SVGID_129_" x="95" y="172.8" width="52.3" height="31.6"/>
						</defs>
						<clipPath id="SVGID_130_">
							<use xlink:href="#SVGID_129_"  style="overflow:visible;"/>
						</clipPath>
						<g class="st71">
							<defs>
								<rect id="SVGID_131_" x="95" y="172.8" width="52.3" height="31.6"/>
							</defs>
							<clipPath id="SVGID_132_">
								<use xlink:href="#SVGID_131_"  style="overflow:visible;"/>
							</clipPath>
							<path class="st72" d="M100.1,204.4c-0.2,0-0.3,0-0.5,0c-2.8-0.2-4.9-2.7-4.6-5.5c0.1-1.4,0.4-2.9,0.7-4.3
								c1.8-7.4,6.4-13.7,12.9-17.6c6.5-4,14.2-5.1,21.6-3.3c6.4,1.6,12.1,5.4,16.1,10.7c1.7,2.3,1.2,5.5-1,7.1
								c-2.3,1.7-5.5,1.2-7.1-1c-2.5-3.4-6.2-5.8-10.3-6.9c-4.8-1.2-9.7-0.4-13.9,2.1c-4.2,2.5-7.1,6.6-8.3,11.3
								c-0.2,0.9-0.4,1.8-0.5,2.7C104.9,202.4,102.7,204.4,100.1,204.4"/>
						</g>
					</g>
				</g>
				<g class="st33">
					<g>
						<defs>
							<rect id="SVGID_133_" x="94.9" y="194.2" width="69.5" height="63.3"/>
						</defs>
						<clipPath id="SVGID_134_">
							<use xlink:href="#SVGID_133_"  style="overflow:visible;"/>
						</clipPath>
						<g class="st73">
							<defs>
								<rect id="SVGID_135_" x="94.9" y="194.2" width="69.5" height="63.3"/>
							</defs>
							<clipPath id="SVGID_136_">
								<use xlink:href="#SVGID_135_"  style="overflow:visible;"/>
							</clipPath>
							<path class="st74" d="M159.3,257.5c-1.8,0-3.5-0.9-4.4-2.5c-9.7-16.6-19.1-20.7-38.3-25.9c-13.7-3.7-22.7-16.4-21.5-30.2
								c0.3-2.8,2.7-4.9,5.5-4.6c2.8,0.3,4.9,2.7,4.6,5.5c-0.8,8.9,5.1,17,14,19.5c19.1,5.2,32.5,10.1,44.5,30.6
								c1.4,2.4,0.6,5.6-1.8,7C161,257.3,160.2,257.5,159.3,257.5"/>
						</g>
					</g>
				</g>
				<g class="st33">
					<g>
						<defs>
							<rect id="SVGID_137_" x="330.7" y="199.5" width="57.5" height="37.6"/>
						</defs>
						<clipPath id="SVGID_138_">
							<use xlink:href="#SVGID_137_"  style="overflow:visible;"/>
						</clipPath>
						<g class="st75">
							<defs>
								<rect id="SVGID_139_" x="330.7" y="199.5" width="57.5" height="37.6"/>
							</defs>
							<clipPath id="SVGID_140_">
								<use xlink:href="#SVGID_139_"  style="overflow:visible;"/>
							</clipPath>
							<path class="st76" d="M359.4,237.1c-6.8,0-13.6-2.4-19-7.2c-6.9-6.1-10.5-15.2-9.6-24.4c0.3-2.8,2.8-4.9,5.6-4.6
								c2.8,0.3,4.9,2.8,4.6,5.6c-0.6,5.9,1.7,11.8,6.2,15.7c7.7,6.8,19.4,6,26.2-1.6c3.7-4.2,5.3-9.7,4.4-15.2
								c-0.4-2.8,1.5-5.4,4.2-5.8c2.8-0.4,5.4,1.5,5.8,4.2c1.4,8.5-1.1,17.1-6.8,23.6C375.3,233.8,367.4,237.1,359.4,237.1"/>
						</g>
					</g>
				</g>
				<g class="st33">
					<g>
						<defs>
							<rect id="SVGID_141_" x="213.6" y="130" width="141.4" height="60.5"/>
						</defs>
						<clipPath id="SVGID_142_">
							<use xlink:href="#SVGID_141_"  style="overflow:visible;"/>
						</clipPath>
						<g class="st77">
							<defs>
								<rect id="SVGID_143_" x="213.6" y="130" width="141.4" height="60.5"/>
							</defs>
							<clipPath id="SVGID_144_">
								<use xlink:href="#SVGID_143_"  style="overflow:visible;"/>
							</clipPath>
							<path class="st78" d="M311.9,190.5c-2.8,0-5.1-2.3-5.1-5.1c0-24.9-20.3-45.2-45.2-45.2c-15.8,0-30.1,8-38.5,21.4
								c-1.5,2.4-4.6,3.1-7,1.6c-2.4-1.5-3.1-4.6-1.6-7c10.2-16.4,27.8-26.2,47.1-26.2c30.6,0,55.4,24.9,55.4,55.4
								C317,188.2,314.7,190.5,311.9,190.5"/>
							<g class="st79">
								<g>
									<defs>
										<rect id="SVGID_145_" x="304.2" y="142" width="50.8" height="36.7"/>
									</defs>
									<clipPath id="SVGID_146_">
										<use xlink:href="#SVGID_145_"  style="overflow:visible;"/>
									</clipPath>
									<g class="st80">
										<defs>
											<rect id="SVGID_147_" x="304.2" y="142" width="50.8" height="36.7"/>
										</defs>
										<clipPath id="SVGID_148_">
											<use xlink:href="#SVGID_147_"  style="overflow:visible;"/>
										</clipPath>
										<path class="st81" d="M323.4,178.7c-6,0-11.8-1.7-16.9-4.9c-2.4-1.5-3.1-4.7-1.6-7c1.5-2.4,4.7-3.1,7-1.6
											c3.4,2.2,7.4,3.3,11.4,3.3c11.8,0,21.4-9.6,21.4-21.4c0-2.8,2.3-5.1,5.1-5.1c2.8,0,5.1,2.3,5.1,5.1
											C355,164.5,340.8,178.7,323.4,178.7"/>
									</g>
								</g>
							</g>
						</g>
					</g>
				</g>
				<path class="st82" d="M158.5,388.2c0-2.1,0.4-4,1.1-5.7s1.7-3,3-4.2c1.3-1.1,2.8-2,4.5-2.6c1.8-0.6,3.7-0.9,5.9-0.9
					c2.6,0,4.6,0.3,6.1,0.8c1.5,0.6,2.5,1.2,3.2,1.8c0.4,0.4,0.7,0.9,0.9,1.4c0.2,0.5,0.3,1,0.3,1.7s-0.1,1.3-0.3,1.8
					c-0.2,0.6-0.4,1.1-0.7,1.5c-0.3,0.4-0.6,0.8-0.8,1.1c-0.3,0.3-0.5,0.5-0.6,0.6c-0.7-0.3-1.6-0.7-2.7-1c-1-0.3-2.2-0.5-3.4-0.5
					c-1.6,0-3,0.5-4.2,1.4c-1.1,1-1.7,2.5-1.7,4.7V409h-10.5V388.2z"/>
				<path class="st82" d="M196.2,396.8c0.1,0.5,0.3,1,0.7,1.5c0.4,0.5,0.9,1,1.6,1.4c0.7,0.4,1.5,0.8,2.6,1c1,0.3,2.3,0.4,3.8,0.4
					c1.1,0,2.2-0.1,3.2-0.3c1-0.2,1.9-0.4,2.6-0.6c0.7-0.2,1.3-0.4,1.8-0.7c0.5-0.2,0.8-0.4,0.8-0.5l3.6,7.3
					c-0.3,0.2-0.9,0.5-1.7,0.9c-0.8,0.4-1.8,0.8-3,1.2c-1.2,0.4-2.6,0.7-4.3,1c-1.6,0.3-3.4,0.4-5.4,0.4c-2.4,0-4.7-0.4-6.8-1.2
					c-2.1-0.8-4-1.9-5.6-3.4c-1.6-1.5-2.8-3.3-3.7-5.5c-0.9-2.2-1.4-4.6-1.4-7.4c0-2.6,0.5-5,1.4-7.1c0.9-2.2,2.2-4,3.8-5.5
					c1.6-1.5,3.5-2.7,5.7-3.5c2.2-0.8,4.5-1.3,7-1.3c2.3,0,4.4,0.3,6.3,0.9c1.9,0.6,3.4,1.5,4.7,2.6c1.3,1.1,2.3,2.3,2.9,3.7
					c0.7,1.4,1,2.8,1,4.3c0,1.6-0.3,3-0.8,4.3c-0.6,1.3-1.6,2.4-3,3.2s-3.4,1.6-5.9,2c-2.5,0.5-5.7,0.7-9.5,0.7H196.2z M195.7,390
					c2.9,0,5.2-0.1,6.8-0.3c1.6-0.2,2.8-0.5,3.6-0.8c0.8-0.3,1.3-0.7,1.4-1.2c0.2-0.4,0.3-0.9,0.3-1.3c0-0.9-0.4-1.7-1.2-2.4
					c-0.8-0.7-2.1-1-3.7-1c-1.2,0-2.2,0.2-3.1,0.6c-0.9,0.4-1.6,0.9-2.2,1.6c-0.6,0.6-1,1.4-1.3,2.2
					C195.9,388.3,195.7,389.2,195.7,390"/>
				<path class="st50" d="M223.2,374.8c0-2.4,0.3-4.4,1-6.2c0.7-1.7,1.6-3.2,2.8-4.3c1.2-1.1,2.7-1.9,4.4-2.5
					c1.7-0.5,3.6-0.8,5.7-0.8c1.8,0,3.4,0.1,4.8,0.4c1.4,0.3,2.5,0.7,3.5,1.3c0.5,0.3,1,0.7,1.5,1.3c0.5,0.6,0.7,1.4,0.7,2.3
					c0,1-0.3,1.9-0.9,2.8c-0.6,0.8-1.2,1.4-1.9,1.8c-0.5-0.5-1.3-0.9-2.4-1.3c-1.1-0.4-2.2-0.6-3.4-0.6c-1.6,0-2.9,0.4-3.9,1.3
					c-1,0.9-1.4,2.2-1.4,3.9v1.4h7.2c1.9,0,3.3,0.4,4.2,1.2c0.8,0.8,1.2,1.9,1.2,3.5c0,1.1-0.2,2.2-0.5,3.2c-0.3,1-0.6,1.6-0.8,1.9
					h-11.3V409h-10.5V374.8z"/>
				<path class="st50" d="M280.5,408.8c-0.3,0.1-0.8,0.2-1.8,0.3c-0.9,0.1-2,0.2-3.4,0.4c-1.4,0.1-2.9,0.2-4.7,0.3
					c-1.8,0.1-3.6,0.1-5.6,0.1c-3.3,0-6-0.3-8.2-0.9c-2.2-0.6-3.9-1.4-5.2-2.4c-1.3-1-2.2-2.2-2.7-3.5c-0.5-1.3-0.8-2.7-0.8-4.2
					c0-4,1.3-6.8,3.8-8.5c2.6-1.7,6.6-2.6,12.2-2.6c1.4,0,2.5,0,3.5,0.1c0.9,0,1.7,0.1,2.3,0.2c0-1.5-0.6-2.7-1.9-3.6
					c-1.2-0.9-3.3-1.3-6.1-1.3c-1.3,0-2.5,0.1-3.5,0.2c-1,0.2-1.9,0.3-2.6,0.6c-0.7,0.2-1.3,0.4-1.7,0.6c-0.4,0.2-0.7,0.4-0.9,0.5
					c-0.1-0.1-0.3-0.3-0.5-0.5c-0.3-0.3-0.5-0.6-0.8-1c-0.3-0.4-0.5-0.9-0.7-1.4c-0.2-0.5-0.3-1.1-0.3-1.7c0-3.8,3.9-5.7,11.6-5.7
					c2.5,0,4.9,0.2,7.1,0.7c2.2,0.5,4.1,1.2,5.8,2.3c1.6,1.1,2.9,2.6,3.8,4.4c0.9,1.8,1.4,4.1,1.4,6.8V408.8z M270,395.2
					c-0.4-0.1-1-0.2-1.7-0.2c-0.8-0.1-1.9-0.1-3.4-0.1c-1.3,0-2.4,0.1-3.2,0.3c-0.8,0.2-1.5,0.5-1.9,0.9c-0.5,0.4-0.8,0.8-0.9,1.3
					c-0.2,0.5-0.3,1-0.3,1.5c0,0.4,0.1,0.8,0.2,1.2c0.1,0.4,0.4,0.8,0.8,1.2c0.4,0.3,1.1,0.6,2,0.9c0.9,0.2,2,0.4,3.4,0.4
					c1.1,0,2.2,0,3.1-0.1c1-0.1,1.6-0.1,1.9-0.2V395.2z"/>
				<path class="st50" d="M317.6,406.1c-0.5,0.3-1.1,0.7-1.9,1.1c-0.8,0.4-1.7,0.8-2.8,1.2c-1.1,0.4-2.4,0.7-3.8,1
					c-1.4,0.3-3,0.4-4.7,0.4c-2.3,0-4.6-0.4-6.8-1.1c-2.2-0.7-4.1-1.8-5.8-3.3c-1.6-1.5-3-3.3-4-5.5c-1-2.2-1.5-4.7-1.5-7.6
					c0-2.8,0.5-5.3,1.5-7.4c1-2.2,2.3-4,4-5.5c1.7-1.5,3.6-2.6,5.9-3.4c2.2-0.8,4.6-1.2,7.1-1.2c2.3,0,4.5,0.3,6.5,0.9
					c2,0.6,3.5,1.4,4.5,2.4c0.5,0.5,0.9,1,1.1,1.5c0.3,0.5,0.4,1.2,0.4,1.9s-0.1,1.4-0.4,2c-0.3,0.6-0.6,1.1-1,1.6
					c-0.4,0.5-0.8,0.9-1.2,1.3c-0.4,0.4-0.8,0.6-1.1,0.8c-0.8-0.8-1.9-1.5-3.2-2.2c-1.4-0.7-3-1-4.9-1c-1.1,0-2.2,0.2-3.2,0.5
					c-1,0.3-1.9,0.9-2.7,1.6c-0.8,0.7-1.4,1.6-1.8,2.6c-0.5,1-0.7,2.2-0.7,3.6c0,1.4,0.2,2.7,0.7,3.7c0.5,1,1.1,1.9,1.8,2.5
					s1.7,1.1,2.7,1.4c1,0.3,2.1,0.5,3.3,0.5c1,0,1.9-0.1,2.8-0.3c0.8-0.2,1.6-0.4,2.2-0.7s1.2-0.5,1.6-0.7c0.4-0.2,0.7-0.4,0.8-0.6
					L317.6,406.1z"/>
				<path class="st50" d="M321.3,370.7c0-1.7,0.5-2.9,1.5-3.6c1-0.7,2.3-1,4-1c1.2,0,2.2,0.1,3.2,0.4c1,0.3,1.6,0.5,1.8,0.6v8.8h7.5
					c1.9,0,3.3,0.4,4.2,1.2c0.8,0.8,1.2,2,1.2,3.5c0,1.1-0.2,2.2-0.5,3.2c-0.3,1-0.6,1.6-0.8,1.9h-11.6v10.2c0,1,0.2,1.8,0.5,2.4
					c0.3,0.6,0.7,1.1,1.1,1.4c0.5,0.3,1,0.6,1.6,0.7c0.6,0.1,1.2,0.2,1.8,0.2c1.2,0,2.3-0.2,3.3-0.6c1-0.4,1.7-0.7,2.1-0.9l4.1,7.1
					c-0.4,0.3-1,0.7-1.7,1.2c-0.7,0.4-1.6,0.8-2.7,1.2c-1,0.4-2.2,0.7-3.5,1c-1.3,0.3-2.7,0.4-4.1,0.4c-4.1,0-7.3-1.1-9.6-3.2
					c-2.3-2.1-3.4-5-3.4-8.6V370.7z"/>
				<path class="st50" d="M347.6,392.4c0-2.5,0.5-4.8,1.4-7c1-2.1,2.3-4,3.9-5.5c1.7-1.6,3.6-2.8,5.8-3.7c2.2-0.9,4.6-1.3,7.2-1.3
					c2.5,0,4.9,0.4,7.1,1.3c2.2,0.9,4.2,2.1,5.9,3.7s3,3.4,3.9,5.5c1,2.1,1.4,4.4,1.4,7c0,2.5-0.5,4.8-1.4,7c-1,2.1-2.3,4-3.9,5.5
					s-3.6,2.8-5.9,3.7c-2.2,0.9-4.6,1.3-7.1,1.3c-2.6,0-4.9-0.4-7.2-1.3c-2.2-0.9-4.2-2.1-5.8-3.7c-1.7-1.6-3-3.4-3.9-5.5
					C348,397.3,347.6,394.9,347.6,392.4 M365.9,400.6c1.1,0,2.1-0.2,3-0.6c0.9-0.4,1.7-1,2.4-1.7c0.7-0.7,1.2-1.6,1.6-2.6
					c0.4-1,0.6-2.1,0.6-3.2c0-1.2-0.2-2.3-0.6-3.2c-0.4-1-0.9-1.9-1.6-2.6c-0.7-0.7-1.5-1.3-2.4-1.7c-0.9-0.4-1.9-0.6-3-0.6
					c-1.1,0-2.1,0.2-3.1,0.6c-0.9,0.4-1.7,1-2.4,1.7c-0.7,0.7-1.2,1.6-1.6,2.6c-0.4,1-0.6,2.1-0.6,3.2c0,1.2,0.2,2.3,0.6,3.2
					c0.4,1,0.9,1.9,1.6,2.6c0.7,0.7,1.5,1.3,2.4,1.7C363.7,400.4,364.8,400.6,365.9,400.6"/>
				<path class="st50" d="M390.1,388.2c0-2.1,0.4-4,1.1-5.7s1.7-3,3-4.2c1.3-1.1,2.8-2,4.5-2.6c1.8-0.6,3.7-0.9,5.9-0.9
					c2.6,0,4.6,0.3,6.1,0.8c1.5,0.6,2.5,1.2,3.2,1.8c0.4,0.4,0.7,0.9,0.9,1.4c0.2,0.5,0.3,1,0.3,1.7s-0.1,1.3-0.3,1.8
					c-0.2,0.6-0.4,1.1-0.7,1.5c-0.3,0.4-0.6,0.8-0.8,1.1c-0.3,0.3-0.5,0.5-0.6,0.6c-0.7-0.3-1.6-0.7-2.7-1c-1-0.3-2.2-0.5-3.4-0.5
					c-1.6,0-3,0.5-4.2,1.4c-1.1,1-1.7,2.5-1.7,4.7V409h-10.5V388.2z"/>
			</g>
		</g>
	</g>
</g>
</svg>
