<svg xmlns="http://www.w3.org/2000/svg" xmlns:xlink="http://www.w3.org/1999/xlink" viewBox="0 0 339.79 339.03"><defs><style>.cls-1{fill:none;}.cls-2{isolation:isolate;}.cls-3{clip-path:url(#clip-path);}.cls-4{mix-blend-mode:multiply;}.cls-5{clip-path:url(#clip-path-4);}.cls-6{fill:#7dce72;}.cls-7{clip-path:url(#clip-path-6);}.cls-8{clip-path:url(#clip-path-8);}.cls-9{fill:#0097a7;}.cls-10{clip-path:url(#clip-path-10);}.cls-11{clip-path:url(#clip-path-12);}.cls-12{clip-path:url(#clip-path-14);}.cls-13{clip-path:url(#clip-path-15);}.cls-14{fill:#e91e63;}.cls-15{clip-path:url(#clip-path-16);}.cls-16{clip-path:url(#clip-path-17);}.cls-17{clip-path:url(#clip-path-18);}.cls-18{clip-path:url(#clip-path-20);}.cls-19{clip-path:url(#clip-path-21);}.cls-20{clip-path:url(#clip-path-22);}.cls-21{clip-path:url(#clip-path-24);}.cls-22{clip-path:url(#clip-path-26);}.cls-23{clip-path:url(#clip-path-28);}.cls-24{clip-path:url(#clip-path-29);}.cls-25{clip-path:url(#clip-path-30);}.cls-26{clip-path:url(#clip-path-31);}.cls-27{clip-path:url(#clip-path-32);}.cls-28{clip-path:url(#clip-path-33);}.cls-29{clip-path:url(#clip-path-34);}.cls-30{clip-path:url(#clip-path-36);}.cls-31{clip-path:url(#clip-path-38);}.cls-32{clip-path:url(#clip-path-39);}.cls-33{clip-path:url(#clip-path-40);}.cls-34{clip-path:url(#clip-path-42);}.cls-35{clip-path:url(#clip-path-43);}.cls-36{clip-path:url(#clip-path-44);}.cls-37{clip-path:url(#clip-path-45);}.cls-38{clip-path:url(#clip-path-46);}.cls-39{clip-path:url(#clip-path-48);}.cls-40{clip-path:url(#clip-path-49);}</style><clipPath id="clip-path" transform="translate(-408.87 -353.34)"><rect class="cls-1" x="336.13" y="277.68" width="486.05" height="477.05"/></clipPath><clipPath id="clip-path-4" transform="translate(-408.87 -353.34)"><rect class="cls-1" x="653.15" y="506.82" width="79.08" height="42.66"/></clipPath><clipPath id="clip-path-6" transform="translate(-408.87 -353.34)"><rect class="cls-1" x="695.14" y="418.28" width="44.77" height="48.19"/></clipPath><clipPath id="clip-path-8" transform="translate(-408.87 -353.34)"><rect class="cls-1" x="637.8" y="376.12" width="68.07" height="53.8"/></clipPath><clipPath id="clip-path-10" transform="translate(-408.87 -353.34)"><rect class="cls-1" x="561.04" y="550.33" width="58.87" height="26.89"/></clipPath><clipPath id="clip-path-12" transform="translate(-408.87 -353.34)"><rect class="cls-1" x="697.71" y="452.41" width="50.95" height="64.63"/></clipPath><clipPath id="clip-path-14" transform="translate(-408.87 -353.34)"><rect class="cls-1" x="575.3" y="353.34" width="73.82" height="43.18"/></clipPath><clipPath id="clip-path-15" transform="translate(-408.87 -353.34)"><rect class="cls-1" x="575.3" y="353.34" width="73.82" height="43.18"/></clipPath><clipPath id="clip-path-16" transform="translate(-408.87 -353.34)"><rect class="cls-1" x="453.48" y="380.34" width="38.84" height="43.54"/></clipPath><clipPath id="clip-path-17" transform="translate(-408.87 -353.34)"><rect class="cls-1" x="453.48" y="380.34" width="38.84" height="43.54"/></clipPath><clipPath id="clip-path-18" transform="translate(-408.87 -353.34)"><rect class="cls-1" x="486.99" y="529.59" width="91.4" height="47.89"/></clipPath><clipPath id="clip-path-20" transform="translate(-408.87 -353.34)"><rect class="cls-1" x="575.75" y="435.76" width="41.96" height="30.84"/></clipPath><clipPath id="clip-path-21" transform="translate(-408.87 -353.34)"><rect class="cls-1" x="575.75" y="435.76" width="41.96" height="30.84"/></clipPath><clipPath id="clip-path-22" transform="translate(-408.87 -353.34)"><rect class="cls-1" x="445.55" y="412.72" width="30.85" height="31.28"/></clipPath><clipPath id="clip-path-24" transform="translate(-408.87 -353.34)"><rect class="cls-1" x="610.47" y="510.59" width="52.83" height="52.85"/></clipPath><clipPath id="clip-path-26" transform="translate(-408.87 -353.34)"><rect class="cls-1" x="524.64" y="516.57" width="96.03" height="44.24"/></clipPath><clipPath id="clip-path-28" transform="translate(-408.87 -353.34)"><rect class="cls-1" x="476.18" y="360.72" width="74.72" height="101.52"/></clipPath><clipPath id="clip-path-29" transform="translate(-408.87 -353.34)"><rect class="cls-1" x="476.18" y="360.72" width="74.72" height="101.51"/></clipPath><clipPath id="clip-path-30" transform="translate(-408.87 -353.34)"><rect class="cls-1" x="531.13" y="353.73" width="62.03" height="56.41"/></clipPath><clipPath id="clip-path-31" transform="translate(-408.87 -353.34)"><rect class="cls-1" x="531.13" y="353.73" width="62.03" height="56.41"/></clipPath><clipPath id="clip-path-32" transform="translate(-408.87 -353.34)"><rect class="cls-1" x="561.04" y="555.94" width="61.07" height="101.12"/></clipPath><clipPath id="clip-path-33" transform="translate(-408.87 -353.34)"><rect class="cls-1" x="561.04" y="555.94" width="61.07" height="101.12"/></clipPath><clipPath id="clip-path-34" transform="translate(-408.87 -353.34)"><rect class="cls-1" x="611.84" y="577.52" width="30.32" height="79.54"/></clipPath><clipPath id="clip-path-36" transform="translate(-408.87 -353.34)"><rect class="cls-1" x="609.71" y="550.33" width="32.46" height="37.39"/></clipPath><clipPath id="clip-path-38" transform="translate(-408.87 -353.34)"><rect class="cls-1" x="408.87" y="381.99" width="62.6" height="104.84"/></clipPath><clipPath id="clip-path-39" transform="translate(-408.87 -353.34)"><rect class="cls-1" x="408.87" y="381.99" width="62.6" height="104.84"/></clipPath><clipPath id="clip-path-40" transform="translate(-408.87 -353.34)"><rect class="cls-1" x="427.84" y="455.26" width="52.35" height="31.57"/></clipPath><clipPath id="clip-path-42" transform="translate(-408.87 -353.34)"><rect class="cls-1" x="427.75" y="476.63" width="69.47" height="63.31"/></clipPath><clipPath id="clip-path-43" transform="translate(-408.87 -353.34)"><rect class="cls-1" x="427.75" y="476.63" width="69.47" height="63.31"/></clipPath><clipPath id="clip-path-44" transform="translate(-408.87 -353.34)"><rect class="cls-1" x="663.5" y="481.99" width="57.52" height="37.58"/></clipPath><clipPath id="clip-path-45" transform="translate(-408.87 -353.34)"><rect class="cls-1" x="663.5" y="482" width="57.51" height="37.58"/></clipPath><clipPath id="clip-path-46" transform="translate(-408.87 -353.34)"><rect class="cls-1" x="546.48" y="412.42" width="141.37" height="60.55"/></clipPath><clipPath id="clip-path-48" transform="translate(-408.87 -353.34)"><rect class="cls-1" x="637.04" y="424.43" width="50.81" height="36.68"/></clipPath><clipPath id="clip-path-49" transform="translate(-408.87 -353.34)"><rect class="cls-1" x="637.04" y="424.43" width="50.81" height="36.68"/></clipPath></defs><title>Refactor_3 (1)</title><g class="cls-2"><g id="Layer_1" data-name="Layer 1"><g class="cls-3"><g class="cls-3"><g class="cls-3"><g class="cls-4"><g class="cls-5"><g class="cls-5"><path class="cls-6" d="M684.12,549.47a50.2,50.2,0,0,1-28.82-9.11,5.1,5.1,0,1,1,5.88-8.34,39.73,39.73,0,0,0,61-21.51,5.1,5.1,0,1,1,9.81,2.81,49.94,49.94,0,0,1-47.9,36.15" transform="translate(-408.87 -353.34)"/></g></g></g><g class="cls-4"><g class="cls-7"><g class="cls-7"><path class="cls-6" d="M731.92,466.47a5.1,5.1,0,0,1-4.53-7.44,21,21,0,0,0-25.47-29.4,5.1,5.1,0,1,1-3.35-9.64,31.16,31.16,0,0,1,37.89,43.71,5.1,5.1,0,0,1-4.54,2.77" transform="translate(-408.87 -353.34)"/></g></g></g><g class="cls-4"><g class="cls-8"><g class="cls-8"><path class="cls-9" d="M700.25,429.92a5.11,5.11,0,0,1-5-6.27c1.84-7.77-3.13-18.89-12.07-27-11.42-10.39-26.28-13.45-32.45-6.68-4.38,4.81-3.47,14,2.26,22.95a5.1,5.1,0,1,1-8.58,5.52c-8.39-13.06-8.87-26.92-1.23-35.33,10.23-11.24,30.81-8.6,46.85,6C702,399.93,707.94,414.42,705.21,426a5.1,5.1,0,0,1-5,3.93" transform="translate(-408.87 -353.34)"/></g></g></g><g class="cls-4"><g class="cls-10"><g class="cls-10"><path class="cls-6" d="M588.77,577.22a33.78,33.78,0,0,1-26.65-13,5.1,5.1,0,0,1,8.06-6.25,23.3,23.3,0,0,0,13,8.42,23.56,23.56,0,0,0,27-13,5.1,5.1,0,1,1,9.27,4.25,33.78,33.78,0,0,1-30.68,19.66" transform="translate(-408.87 -353.34)"/></g></g></g><g class="cls-4"><g class="cls-11"><g class="cls-11"><path class="cls-9" d="M727.2,517a5.1,5.1,0,0,1-.76-10.14c3.72-.57,7-3.21,9.23-7.44a29.59,29.59,0,0,0-4.93-32.37c-3.39-3.38-7.31-4.93-11-4.36-6.09.93-10.85,7.46-11.83,16.25a5.1,5.1,0,0,1-10.14-1.14c1.51-13.44,9.72-23.57,20.44-25.2,7-1.06,14,1.5,19.76,7.21a39.73,39.73,0,0,1,6.75,44.36C740.91,511.39,735,515.92,728,517a5.2,5.2,0,0,1-.77.06" transform="translate(-408.87 -353.34)"/></g></g></g><g class="cls-4"><g class="cls-12"><g class="cls-13"><path class="cls-14" d="M644,396.52a5.1,5.1,0,0,1-5-4.38A33.33,33.33,0,0,0,583.8,372a5.1,5.1,0,0,1-6.78-7.62,43.53,43.53,0,0,1,72.06,26.32,5.1,5.1,0,0,1-4.33,5.77,5.17,5.17,0,0,1-.73.05" transform="translate(-408.87 -353.34)"/></g></g></g><g class="cls-4"><g class="cls-15"><g class="cls-16"><path class="cls-6" d="M475.23,423.87A21.77,21.77,0,1,1,480.45,381a21,21,0,0,1,2.69.84,5.1,5.1,0,0,1-3.71,9.5,10.88,10.88,0,0,0-1.42-.44,11.57,11.57,0,1,0,5.55,19.3,5.1,5.1,0,1,1,7.31,7.11,21.88,21.88,0,0,1-15.66,6.59" transform="translate(-408.87 -353.34)"/></g></g></g><g class="cls-4"><g class="cls-17"><g class="cls-17"><path class="cls-9" d="M536.21,577.48a49.83,49.83,0,0,1-49.16-42,5.1,5.1,0,0,1,10.07-1.62,39.72,39.72,0,0,0,72,16.19,5.1,5.1,0,1,1,8.41,5.77,50.21,50.21,0,0,1-41.27,21.63" transform="translate(-408.87 -353.34)"/></g></g></g><path class="cls-6" d="M492.08,539.79a5.1,5.1,0,0,1-5-4.29,49.59,49.59,0,0,1,.82-19.8c9.41-38.37,45.44-39.08,74.39-39.65,25.51-.5,41.32-1.53,44.9-15.8a5.1,5.1,0,0,1,9.89,2.48c-5.66,22.55-30.53,23-54.59,23.51-28.09.55-57.13,1.13-64.68,31.88a39.44,39.44,0,0,0-.65,15.75,5.1,5.1,0,0,1-4.23,5.85,5.16,5.16,0,0,1-.82.06" transform="translate(-408.87 -353.34)"/><g class="cls-4"><g class="cls-18"><g class="cls-19"><path class="cls-14" d="M612.11,466.6a5.1,5.1,0,0,1-5-6.34,11.36,11.36,0,0,0-1.31-8.68,11.59,11.59,0,0,0-20.39,1,5.1,5.1,0,1,1-9.22-4.37,21.79,21.79,0,0,1,38.34-1.88,21.49,21.49,0,0,1,2.46,16.43,5.1,5.1,0,0,1-4.94,3.86" transform="translate(-408.87 -353.34)"/></g></g></g><g class="cls-4"><g class="cls-20"><g class="cls-20"><path class="cls-9" d="M451.24,444a5.1,5.1,0,0,1-4.91-3.75,21.77,21.77,0,0,1,26.18-26.9,5.1,5.1,0,1,1-2.43,9.9,11.58,11.58,0,0,0-13.92,14.29,5.1,5.1,0,0,1-4.92,6.45" transform="translate(-408.87 -353.34)"/></g></g></g><g class="cls-4"><g class="cls-21"><g class="cls-21"><path class="cls-9" d="M630.57,563.44a51.27,51.27,0,0,1-16.67-2.91,5.1,5.1,0,0,1,3.33-9.64c9.6,3.32,19.38,3.09,26.18-.62a18.5,18.5,0,0,0,9.28-12.42,13.84,13.84,0,0,0-10.14-16.73,14.81,14.81,0,0,0-12.18,2.66,5.1,5.1,0,1,1-6.37-8,25.2,25.2,0,0,1,21-4.6,24.06,24.06,0,0,1,17.61,29.06,28.7,28.7,0,0,1-14.3,18.95,37,37,0,0,1-17.72,4.22" transform="translate(-408.87 -353.34)"/></g></g></g><g class="cls-4"><g class="cls-22"><g class="cls-22"><path class="cls-14" d="M615.57,560.81a5.08,5.08,0,0,1-1.67-.28c-12.36-4.27-21.43-11.92-29.44-18.67-7.84-6.61-14.62-12.32-23.17-14.42a21.83,21.83,0,0,0-26.6,16.12,5.1,5.1,0,1,1-9.91-2.43,32,32,0,0,1,38.93-23.59c10.88,2.67,19.24,9.71,27.32,16.53,7.68,6.48,15.63,13.18,26.2,16.83a5.1,5.1,0,0,1-1.67,9.92" transform="translate(-408.87 -353.34)"/></g></g></g><g class="cls-4"><g class="cls-23"><g class="cls-24"><path class="cls-14" d="M505.72,462.24A20.15,20.15,0,0,1,488.83,453a19.56,19.56,0,0,1-2.27-15.15c2.59-10.54,14.65-17.3,27.42-24.45,18.3-10.26,30-17.89,25.79-30a15.61,15.61,0,0,0-6.44-8.55c-6.36-4-15.76-5-25.15-2.75-10.48,2.55-19.18,9-22.18,16.37a5.1,5.1,0,1,1-9.46-3.83c4.25-10.49,15.44-19.1,29.22-22.45,12-2.93,24.35-1.42,33,4a25.76,25.76,0,0,1,10.65,13.85c7.28,21.08-13.64,32.81-30.45,42.23-10.31,5.78-21,11.75-22.5,18a9.33,9.33,0,0,0,1,7.32,9.58,9.58,0,0,0,5.94,4.15,9.49,9.49,0,0,0,11.47-7,5.1,5.1,0,0,1,9.91,2.43,19.71,19.71,0,0,1-19.08,15" transform="translate(-408.87 -353.34)"/></g></g></g><g class="cls-4"><g class="cls-25"><g class="cls-26"><path class="cls-6" d="M576.34,410.14c-4.26,0-8.48-1.9-10.61-4.95a5.1,5.1,0,0,1,8.29-5.94,4,4,0,0,0,3.24.57c2.07-.54,3.8-3,4.89-6.87a22,22,0,0,0-2.31-17.15,24.11,24.11,0,0,0-15-11.18,23.52,23.52,0,0,0-24.53,8.83,5.1,5.1,0,0,1-8.18-6.09,33.69,33.69,0,0,1,35.14-12.64,34.36,34.36,0,0,1,21.36,15.94,32.13,32.13,0,0,1,3.33,25c-3.05,10.94-9.65,13.63-13.31,14.25a13.75,13.75,0,0,1-2.33.19" transform="translate(-408.87 -353.34)"/></g></g></g><g class="cls-4"><g class="cls-27"><g class="cls-28"><path class="cls-9" d="M617,657.06a5.1,5.1,0,0,1-5.09-4.88c0-.13-0.65-12.82-7-29.86A132,132,0,0,0,563,565a5.1,5.1,0,0,1,6.33-8,142.23,142.23,0,0,1,45.31,62.12c6.83,18.46,7.48,32,7.5,32.59a5.1,5.1,0,0,1-4.88,5.31H617" transform="translate(-408.87 -353.34)"/></g></g></g><g class="cls-4"><g class="cls-29"><g class="cls-29"><path class="cls-14" d="M617,657.06a5.1,5.1,0,0,1-5.09-4.81c-0.1-1.69-2-41.86,21.06-72.68a5.1,5.1,0,1,1,8.16,6.12c-20.83,27.79-19.06,65.63-19,66a5.1,5.1,0,0,1-4.81,5.37H617" transform="translate(-408.87 -353.34)"/></g></g></g><g class="cls-4"><g class="cls-30"><g class="cls-30"><path class="cls-6" d="M637.06,587.72a5.09,5.09,0,0,1-1.65-.27c-21.18-7.22-25.46-30.16-25.63-31.13a5.1,5.1,0,0,1,10-1.79c0.06,0.3,3.53,18,18.88,23.26a5.1,5.1,0,0,1-1.65,9.93" transform="translate(-408.87 -353.34)"/></g></g></g><g class="cls-4"><g class="cls-31"><g class="cls-32"><path class="cls-14" d="M432.94,486.83a5.13,5.13,0,0,1-1.25-.16c-7.09-1.79-13.26-7.13-17.38-15.05-7-13.43-7.26-31.63-.74-48.69a73.15,73.15,0,0,1,24.05-32.11c10.73-7.9,21.83-10.68,30.46-7.61a5.1,5.1,0,0,1-3.42,9.61c-5.22-1.86-13.27.52-21,6.21a62.69,62.69,0,0,0-20.57,27.54c-5.41,14.16-5.31,29.62.26,40.35,2.75,5.29,6.6,8.8,10.82,9.86a5.1,5.1,0,0,1-1.24,10" transform="translate(-408.87 -353.34)"/></g></g></g><g class="cls-4"><g class="cls-33"><g class="cls-33"><path class="cls-9" d="M432.94,486.83l-0.46,0a5.1,5.1,0,0,1-4.62-5.53,28.68,28.68,0,0,1,.71-4.26,28.54,28.54,0,0,1,50.61-10.25,5.1,5.1,0,0,1-8.18,6.09,18.35,18.35,0,0,0-33,9.33,5.1,5.1,0,0,1-5.07,4.65" transform="translate(-408.87 -353.34)"/></g></g></g><g class="cls-4"><g class="cls-34"><g class="cls-35"><path class="cls-6" d="M492.12,539.94a5.1,5.1,0,0,1-4.41-2.53c-9.72-16.65-19.15-20.68-38.34-25.91a28.86,28.86,0,0,1-21.5-30.23,5.1,5.1,0,1,1,10.16.91,18.68,18.68,0,0,0,14,19.48c19.11,5.21,32.53,10.15,44.47,30.6a5.1,5.1,0,0,1-4.4,7.67" transform="translate(-408.87 -353.34)"/></g></g></g><g class="cls-4"><g class="cls-36"><g class="cls-37"><path class="cls-6" d="M692.24,519.57A28.74,28.74,0,0,1,663.64,488a5.1,5.1,0,1,1,10.15,1,18.56,18.56,0,1,0,36.79-1.11,5.1,5.1,0,1,1,10.07-1.6,28.74,28.74,0,0,1-28.41,33.28" transform="translate(-408.87 -353.34)"/></g></g></g><g class="cls-4"><g class="cls-38"><g class="cls-38"><path class="cls-6" d="M644.72,473a5.1,5.1,0,0,1-5.1-5.1A45.25,45.25,0,0,0,555.91,444a5.1,5.1,0,1,1-8.66-5.38,55.45,55.45,0,0,1,102.57,29.22,5.1,5.1,0,0,1-5.1,5.1" transform="translate(-408.87 -353.34)"/><g class="cls-4"><g class="cls-39"><g class="cls-40"><path class="cls-14" d="M656.27,461.11a31.49,31.49,0,0,1-16.86-4.87,5.1,5.1,0,0,1,5.45-8.62,21.38,21.38,0,0,0,32.78-18.09,5.1,5.1,0,0,1,10.2,0,31.61,31.61,0,0,1-31.58,31.58" transform="translate(-408.87 -353.34)"/></g></g></g></g></g></g><path class="cls-14" d="M491.38,670.66a14.08,14.08,0,0,1,1.07-5.65,11.81,11.81,0,0,1,3-4.16,12.63,12.63,0,0,1,4.55-2.57,18.61,18.61,0,0,1,5.85-.88,17.38,17.38,0,0,1,6.08.85,9.21,9.21,0,0,1,3.15,1.82,5.36,5.36,0,0,1,.91,1.36,4.07,4.07,0,0,1,.32,1.69,5.55,5.55,0,0,1-.29,1.82,6.91,6.91,0,0,1-.72,1.49,10.55,10.55,0,0,1-.81,1.11q-0.39.46-.59,0.65a18.56,18.56,0,0,0-2.66-1,12.29,12.29,0,0,0-3.45-.45,6.34,6.34,0,0,0-4.19,1.43q-1.72,1.43-1.72,4.74v18.52H491.38v-20.8Z" transform="translate(-408.87 -353.34)"/><path class="cls-14" d="M529,679.24a3.53,3.53,0,0,0,.68,1.53,5.84,5.84,0,0,0,1.56,1.4,8.56,8.56,0,0,0,2.57,1,15.75,15.75,0,0,0,3.77.39,16.5,16.5,0,0,0,3.18-.29q1.49-.29,2.6-0.62a14,14,0,0,0,1.82-.65,3.9,3.9,0,0,0,.85-0.45l3.64,7.28q-0.52.33-1.72,0.91a23.43,23.43,0,0,1-3,1.17,31.84,31.84,0,0,1-4.26,1,31.46,31.46,0,0,1-5.36.42,19.63,19.63,0,0,1-6.82-1.17,15.68,15.68,0,0,1-9.3-8.9,19,19,0,0,1-1.36-7.41,18.28,18.28,0,0,1,1.36-7.15,16.06,16.06,0,0,1,3.77-5.53,17.27,17.27,0,0,1,5.65-3.54,19.15,19.15,0,0,1,7-1.27,19.71,19.71,0,0,1,6.3.94,14.26,14.26,0,0,1,4.71,2.57,11.33,11.33,0,0,1,2.93,3.71,9.73,9.73,0,0,1,1,4.29,10.63,10.63,0,0,1-.85,4.32,7.32,7.32,0,0,1-3,3.25,17.86,17.86,0,0,1-5.92,2,52.14,52.14,0,0,1-9.52.71H529Zm-0.52-6.76a53.65,53.65,0,0,0,6.76-.32,14,14,0,0,0,3.57-.85,2.54,2.54,0,0,0,1.43-1.17,3.48,3.48,0,0,0,.26-1.3,3,3,0,0,0-1.24-2.37,5.78,5.78,0,0,0-3.71-1,7,7,0,0,0-3.05.62,6.82,6.82,0,0,0-2.18,1.59,6.69,6.69,0,0,0-1.33,2.24,8.8,8.8,0,0,0-.52,2.57" transform="translate(-408.87 -353.34)"/><path class="cls-6" d="M556,657.27a17,17,0,0,1,1-6.17,11,11,0,0,1,2.83-4.26,11.62,11.62,0,0,1,4.39-2.47,18.77,18.77,0,0,1,5.69-.81,23.83,23.83,0,0,1,4.78.42,11.08,11.08,0,0,1,3.54,1.33,5.64,5.64,0,0,1,1.49,1.33,3.54,3.54,0,0,1,.71,2.31,4.75,4.75,0,0,1-.88,2.76,5.26,5.26,0,0,1-1.92,1.79,6.84,6.84,0,0,0-2.44-1.27,10.76,10.76,0,0,0-3.41-.55,5.58,5.58,0,0,0-3.9,1.3,5,5,0,0,0-1.43,3.9v1.43h7.21q2.92,0,4.16,1.17a4.62,4.62,0,0,1,1.24,3.51,9.37,9.37,0,0,1-.52,3.15,14.56,14.56,0,0,1-.78,1.92H566.45v23.4H556V657.27Z" transform="translate(-408.87 -353.34)"/><path class="cls-6" d="M613.32,691.27a11.26,11.26,0,0,1-1.76.29q-1.37.16-3.41,0.36t-4.68.33q-2.63.13-5.56,0.13a32.1,32.1,0,0,1-8.19-.88,14.88,14.88,0,0,1-5.2-2.37,8.14,8.14,0,0,1-2.73-3.48,11.34,11.34,0,0,1-.78-4.19q0-6,3.84-8.55T597,670.34q2.08,0,3.48.06t2.31,0.19a4.14,4.14,0,0,0-1.85-3.57q-1.85-1.3-6.14-1.3a24.42,24.42,0,0,0-3.54.23,18.68,18.68,0,0,0-2.6.55,11.27,11.27,0,0,0-1.72.65,6.48,6.48,0,0,0-.91.52l-0.52-.52a5.77,5.77,0,0,1-.78-1,9.25,9.25,0,0,1-.71-1.4,4.34,4.34,0,0,1-.32-1.69q0-5.65,11.57-5.65a35.11,35.11,0,0,1,7.08.68,15.76,15.76,0,0,1,5.75,2.34,11.59,11.59,0,0,1,3.83,4.39,14.89,14.89,0,0,1,1.4,6.82v19.63Zm-10.46-13.59a14.23,14.23,0,0,0-1.72-.23q-1.14-.1-3.41-0.1a12.87,12.87,0,0,0-3.18.32,5.11,5.11,0,0,0-1.92.88,2.91,2.91,0,0,0-.94,1.27,4.23,4.23,0,0,0-.07,2.73,2.39,2.39,0,0,0,.84,1.17,5.45,5.45,0,0,0,2,.88,13.39,13.39,0,0,0,3.45.36q1.69,0,3.12-.1a11.35,11.35,0,0,0,1.89-.23v-7Z" transform="translate(-408.87 -353.34)"/><path class="cls-6" d="M650.43,688.6q-0.72.46-1.89,1.11a18.56,18.56,0,0,1-2.83,1.23,27.45,27.45,0,0,1-3.8,1,24.59,24.59,0,0,1-4.74.42,21.17,21.17,0,0,1-6.79-1.1,16.58,16.58,0,0,1-5.75-3.28,16,16,0,0,1-4-5.46,20,20,0,0,1,0-15.08,15.79,15.79,0,0,1,4-5.49,17.39,17.39,0,0,1,5.85-3.38,21.41,21.41,0,0,1,7.12-1.17,23.1,23.1,0,0,1,6.47.88,10.42,10.42,0,0,1,4.52,2.37,6.27,6.27,0,0,1,1.14,1.53,4.1,4.1,0,0,1,.42,1.92,5.06,5.06,0,0,1-.39,2,6.72,6.72,0,0,1-1,1.63,11.11,11.11,0,0,1-1.2,1.27,6.66,6.66,0,0,1-1.07.81,11.92,11.92,0,0,0-3.25-2.18,11.23,11.23,0,0,0-4.94-1,9.93,9.93,0,0,0-3.22.52,7.47,7.47,0,0,0-2.67,1.56,7.59,7.59,0,0,0-1.82,2.6,8.84,8.84,0,0,0-.68,3.58,9,9,0,0,0,.68,3.67,7,7,0,0,0,1.82,2.5,7.16,7.16,0,0,0,2.7,1.43,11.8,11.8,0,0,0,3.32.45,12.22,12.22,0,0,0,2.76-.29,15.35,15.35,0,0,0,2.24-.68,15.08,15.08,0,0,0,1.63-.75,4.27,4.27,0,0,0,.85-0.55Z" transform="translate(-408.87 -353.34)"/><path class="cls-6" d="M654.13,653.17a4,4,0,0,1,1.49-3.57,6.82,6.82,0,0,1,4-1,11.21,11.21,0,0,1,3.18.42l1.82,0.55v8.78h7.47q2.92,0,4.16,1.17a4.62,4.62,0,0,1,1.23,3.51,9.36,9.36,0,0,1-.52,3.15,14.83,14.83,0,0,1-.78,1.92H664.6v10.21a5.19,5.19,0,0,0,.45,2.37,4.07,4.07,0,0,0,1.14,1.4,3.59,3.59,0,0,0,1.56.68,9.71,9.71,0,0,0,1.79.16,9.5,9.5,0,0,0,3.31-.55,14.08,14.08,0,0,0,2.15-.94l4.09,7.15a10.86,10.86,0,0,1-1.69,1.17,17.16,17.16,0,0,1-2.67,1.24,25.23,25.23,0,0,1-3.51,1,19.26,19.26,0,0,1-4.09.42q-6.11,0-9.56-3.22a11.22,11.22,0,0,1-3.44-8.61V653.17Z" transform="translate(-408.87 -353.34)"/><path class="cls-6" d="M680.39,674.88a16.78,16.78,0,0,1,1.43-7,17,17,0,0,1,3.93-5.53,18.55,18.55,0,0,1,5.82-3.67,19.75,19.75,0,0,1,14.27,0,18.46,18.46,0,0,1,5.85,3.67,17,17,0,0,1,3.93,5.53,17.63,17.63,0,0,1,0,13.91,17,17,0,0,1-3.93,5.53,18.46,18.46,0,0,1-5.85,3.67,19.77,19.77,0,0,1-14.27,0,18.55,18.55,0,0,1-5.82-3.67,17,17,0,0,1-3.93-5.53,16.77,16.77,0,0,1-1.43-7M698.72,683a7.39,7.39,0,0,0,3-.62,7.71,7.71,0,0,0,2.44-1.69,7.25,7.25,0,0,0,1.59-2.57,9.84,9.84,0,0,0,0-6.5,7.25,7.25,0,0,0-1.59-2.57,7.71,7.71,0,0,0-2.44-1.69,7.78,7.78,0,0,0-6.08,0,7.8,7.8,0,0,0-2.4,1.69,7.22,7.22,0,0,0-1.59,2.57,9.84,9.84,0,0,0,0,6.5,7.22,7.22,0,0,0,1.59,2.57,7.8,7.8,0,0,0,2.4,1.69,7.32,7.32,0,0,0,3.06.62" transform="translate(-408.87 -353.34)"/><path class="cls-6" d="M722.9,670.66A14.08,14.08,0,0,1,724,665a11.81,11.81,0,0,1,3-4.16,12.64,12.64,0,0,1,4.55-2.57,18.61,18.61,0,0,1,5.85-.88,17.38,17.38,0,0,1,6.08.85,9.2,9.2,0,0,1,3.15,1.82,5.33,5.33,0,0,1,.91,1.36,4.05,4.05,0,0,1,.33,1.69,5.55,5.55,0,0,1-.29,1.82,6.91,6.91,0,0,1-.71,1.49,10.84,10.84,0,0,1-.81,1.11c-0.26.3-.45,0.52-0.58,0.65a18.51,18.51,0,0,0-2.67-1,12.29,12.29,0,0,0-3.45-.45,6.34,6.34,0,0,0-4.19,1.43q-1.72,1.43-1.72,4.74v18.52H722.9v-20.8Z" transform="translate(-408.87 -353.34)"/></g></g></g></g></g></svg>